<?xml version="1.0" encoding="utf-8"?>
<!-- Generator: Adobe Illustrator 24.1.2, SVG Export Plug-In . SVG Version: 6.00 Build 0)  -->
<svg version="1.1" id="Layer_1" xmlns="http://www.w3.org/2000/svg" xmlns:xlink="http://www.w3.org/1999/xlink" x="0px" y="0px"
	 viewBox="0 0 120 120" style="enable-background:new 0 0 120 120;" xml:space="preserve">
<style type="text/css">
	.st0{fill:#1a1b86;}
	.st1{fill:#FFFFFF;}
</style>
<path class="st0" d="M120,60c0,33.1-26.9,60-60,60S0,93.1,0,60S26.9,0,60,0S120,26.9,120,60"/>
<path class="st1" d="M59,49.4c-0.4,1.2-0.9,2.3-1.4,3.4c3.3,0.6,9.8,1.7,10,1.8c0.2,0,0.3,0,0.4,0c0.1,0,0.2,0,0.3,0
	c0.1,0,13.1-0.1,13.7-0.2c0,0,7.4,12,7.6,12.2c0.3,0.5,0.2,2.8,1,4.1l5.5,8.9H69.3c-0.5-4.5-1.9-15.4-2.4-17.3
	c-0.4-1.3-1.6-2.3-2.9-2.3c-0.2,0-0.5,0-0.7,0c-0.7,0-5.5,0.4-8.9,0.7c-3.4,0.4-8.1,0.9-8.9,1.1c-0.6,0.1-1.3,0.4-1.8,0.8
	c-0.4,0.3-0.9,0.7-1.3,1.3c-0.5,0.7-8.5,14.1-9.3,15.8H8.2c0.7,5.1,5,9,10.3,9c2.7,0,5.1-1,6.9-2.7c1.8,1.7,4.3,2.7,6.9,2.7
	c2.7,0,5.1-1,6.9-2.7c1.8,1.7,4.3,2.7,6.9,2.7c2.7,0,5.1-1,6.9-2.7c1.8,1.7,4.3,2.7,6.9,2.7c2.7,0,5.1-1,6.9-2.7
	c1.8,1.7,4.3,2.7,6.9,2.7c2.7,0,5.1-1,6.9-2.7c1.8,1.7,4.3,2.7,6.9,2.7c2.7,0,5.1-1,6.9-2.7c1.8,1.7,4.3,2.7,6.9,2.7
	c5.3,0,9.6-3.9,10.3-9h-10.2l-7-11.3c-0.8-1.3-2.9-2.2-3.3-2.7c-0.2-0.3-31-50-31-50c-0.2-0.4-0.6-0.6-1.1-0.6
	c-0.5,0-0.9,0.2-1.2,0.5c-0.3,0.4-4.3,7-8,13.2c-3.2,5.3-6.2,10.5-6.4,11.1c-0.2,0.6-0.4,1.2-0.4,1.9c0.1,2.2,2,3.9,4.2,3.8
	c1.6-0.1,3-1.1,3.5-2.4c0.6-1.5,2.9-10,3.4-12.4c0.9-1.7,4.1-8.8,5.5-12.2l20.5,33.1c-3.2-0.4-9.5-1.1-11.6-1.2
	c-1.7-0.9-6.3-3.2-8.9-4.3C59.7,47.1,59.4,48.3,59,49.4 M40.8,79.7c2.3-2.5,5.3-5.9,7.2-8.1c2.4-0.6,9.3-2.8,13.6-4.2
	c1,3.7,2.6,9.2,3.6,12.4H40.8z"/>
<path class="st1" d="M60.1,44c2.8,0,5.1-2.3,5.1-5.1c0-2.8-2.3-5.1-5.1-5.1c-2.8,0-5.1,2.3-5.1,5.1C55,41.7,57.3,44,60.1,44"/>
</svg>
