<?xml version="1.0" encoding="utf-8"?>
<!-- Generator: Adobe Illustrator 24.1.2, SVG Export Plug-In . SVG Version: 6.00 Build 0)  -->
<svg version="1.1" id="Layer_1" xmlns="http://www.w3.org/2000/svg" xmlns:xlink="http://www.w3.org/1999/xlink" x="0px" y="0px"
	 viewBox="0 0 120 120" style="enable-background:new 0 0 120 120;" xml:space="preserve">
<style type="text/css">
	.st0{fill:#1a1b86;}
	.st1{fill:#FFFFFF;}
</style>
<path class="st0" d="M120,60c0,33.1-26.9,60-60,60S0,93.1,0,60C0,26.9,26.9,0,60,0S120,26.9,120,60"/>
<path class="st1" d="M79.3,54.8c0.6,0,1-0.5,1-1V18.9c0-0.6-0.5-1-1-1c-0.6,0-1,0.5-1,1v34.8C78.3,54.3,78.7,54.8,79.3,54.8"/>
<path class="st1" d="M27.6,73.7c0,0.6,0.5,1,1,1c0.6,0,1-0.5,1-1v-36c0-0.6-0.5-1-1-1c-0.6,0-1,0.5-1,1V73.7z"/>
<path class="st1" d="M58.7,64.4c3.1-0.8,4.8-4,4-7.1c-0.8-3.1-4-4.8-7.1-4c-3.1,0.8-4.8,4-4,7.1C52.4,63.5,55.6,65.3,58.7,64.4"/>
<path class="st1" d="M45.9,45.6c-0.1,0.1-0.2,0.1-0.4,0.2c-0.4,0.3-0.6,0.7-0.8,1.1c-0.5,0.9-5.1,12.4-5.3,13
	c-0.3,0.9-0.3,1.8-0.1,2.7c0.7,2.4,3.2,3.9,5.6,3.2c1.7-0.5,3-1.9,3.3-3.5c0.3-1.6,1.2-9.5,1.5-12.6c2.7-1.8,8.8-6,10.4-7.2
	l18.6,28.2c-1.8,0.6-8.5,3-11.6,4.1c-2.6-2.1-8.7-7-9.8-7.7c-0.2,0.9-0.5,2.1-1.1,3.9c-0.4,1.3-0.9,2.6-1.5,3.9
	c3.4,1.6,10.2,4.7,10.9,4.9c0.4,0.2,0.8,0.2,1.2,0.2c0.4,0,0.5-0.1,0.8-0.2c0.8-0.3,12.6-6.5,12.7-6.7c0,0,3.8,5.8,4.4,6.7
	c0.2,0.3,0.3,0.8,0.5,1.4l-66.7,8c2.1,2.8,5.5,4.6,9.2,4.6c3,0,5.7-1.1,7.7-3c2,1.8,4.8,3,7.7,3c3,0,5.7-1.1,7.7-3
	c2,1.8,4.8,3,7.7,3c3,0,5.7-1.1,7.7-3c2,1.8,4.8,3,7.7,3c3.7,0,7-1.8,9.1-4.5c0.1,0.1,0.3,0.1,0.4,0.2c2.7,1.1,6,1.5,8.9,1.3
	c4.4-0.4,8.1-2.1,10.7-4.6c2.3-2.2,3.7-5,4.1-7.7l-17.5,2.1c-1.6-1-3.1-1.7-3.5-2.2C85.9,77.7,57.8,35,57.2,34.1
	c-0.6-0.9-0.9-5.1-2.4-7.4l-6.3-9.6c-0.9-1.4-2-2-4.2,0.5c-1.9,2.2-1.3,3.5-0.7,4.6c0.2,0.3,5,7.6,5,7.6c0.4,0.6,0.8,1.1,1,1.4
	c1.8,1.9,5.5,3.4,6,4.2c0.6,0.9,2.7,4.2,2.7,4.2C55.8,40.8,46.3,45.4,45.9,45.6"/>
</svg>
