<?xml version="1.0" encoding="utf-8"?>
<!-- Generator: Adobe Illustrator 24.1.2, SVG Export Plug-In . SVG Version: 6.00 Build 0)  -->
<svg version="1.1" id="Layer_1" xmlns="http://www.w3.org/2000/svg" xmlns:xlink="http://www.w3.org/1999/xlink" x="0px" y="0px"
	 viewBox="0 0 120 120" style="enable-background:new 0 0 120 120;" xml:space="preserve">
<style type="text/css">
	.st0{fill:#1a1b86;}
	.st1{fill:#FFFFFF;}
</style>
<path class="st0" d="M120,60c0,33.1-26.9,60-60,60S0,93.1,0,60S26.9,0,60,0S120,26.9,120,60"/>
<path class="st1" d="M43.9,43.5c0.3,1,14.8,40.3,15.1,41.1c0.2,0.6,0.9,1.1,1.6,1.1c1,0,1.7-0.8,1.7-1.7c0-0.1,0-0.2,0-0.3
	c0-0.2-1.8-8.8-3.8-18.2c3.9-4.9,9.2-11.6,9.3-11.7c0.4-0.5,0.7-1.2,0.7-1.9c0-0.9-0.4-1.8-1.1-2.3c-0.5-0.4-13.4-11-14.9-12.1
	c-0.9-0.7-2.1-1.1-3.3-1.1c-3.1,0-5.6,2.5-5.6,5.6C43.6,42.4,43.7,42.9,43.9,43.5 M55.2,49.8c1.8,1,3.8,2.1,5.7,3.1
	c-1.2,1.9-2.5,4-3.8,6C56.5,55.7,55.8,52.5,55.2,49.8"/>
<path class="st1" d="M81.5,49.7c-0.8-0.7-7.8-5.9-10.6-8C70.6,38.3,69.8,30,69.7,29c0-0.3-0.1-0.7-0.2-1c-0.8-2.3-3.3-3.4-5.6-2.6
	c-2.2,0.8-3.3,3.2-2.7,5.3c0.4,1.6,3.8,11.9,4.4,13.4c0.3,0.8,0.8,1.4,1.5,1.7l8.3,4v6.4c0,0.2,0,0.4,0.1,0.6l2.2,5
	c-5.3,2.9-8.9,8.5-8.9,15c0,9.4,7.7,17.1,17.1,17.1c9.4,0,17.1-7.7,17.1-17.1c0-9.4-7.7-17.1-17.1-17.1c-2,0-3.9,0.3-5.6,1l-2.1-4.7
	V52h5.5c1.6,0,2.2,0.6,2.2,1.4c0,0.8-0.5,1.5-2.2,1.5H83c-0.7,0-1.3,0.5-1.3,1.2c0,0.7,0.6,1.3,1.3,1.3h1c3.4,0,4.5-2.1,4.5-3.7
	c0-2.1-1.5-4-4.8-4H81.5z M85.9,91c-7.9,0-14.3-6.4-14.3-14.3c0-5.4,2.9-10,7.3-12.5l5.8,13c0.2,0.5,0.7,0.8,1.3,0.8
	c0.2,0,0.4,0,0.6-0.1c0.7-0.3,1-1.1,0.7-1.8L81.3,63c1.4-0.5,2.9-0.7,4.5-0.7c7.9,0,14.3,6.4,14.3,14.3C100.2,84.6,93.8,91,85.9,91"
	/>
<path class="st1" d="M35.3,59.6c-9.4,0-17.1,7.7-17.1,17.1c0,9.4,7.7,17.1,17.1,17.1c9.4,0,17.1-7.7,17.1-17.1
	C52.4,67.2,44.7,59.6,35.3,59.6 M35.3,91C27.4,91,21,84.6,21,76.7c0-7.9,6.4-14.3,14.3-14.3c7.9,0,14.3,6.4,14.3,14.3
	C49.6,84.6,43.2,91,35.3,91"/>
<path class="st1" d="M77.7,29.8c3,0,5.5-2.4,5.5-5.5c0-3-2.4-5.5-5.5-5.5c-3,0-5.5,2.4-5.5,5.5C72.2,27.4,74.7,29.8,77.7,29.8"/>
</svg>
