<?xml version="1.0" encoding="utf-8"?>
<!-- Generator: Adobe Illustrator 24.1.2, SVG Export Plug-In . SVG Version: 6.00 Build 0)  -->
<svg version="1.1" id="Layer_1" xmlns="http://www.w3.org/2000/svg" xmlns:xlink="http://www.w3.org/1999/xlink" x="0px" y="0px"
	 viewBox="0 0 120 120" style="enable-background:new 0 0 120 120;" xml:space="preserve">
<style type="text/css">
	.st0{fill:#1a1b86;}
	.st1{fill:#FFFFFF;}
</style>
<path class="st0" d="M120,60c0,33.1-26.9,60-60,60C26.9,120,0,93.1,0,60S26.9,0,60,0C93.1,0,120,26.9,120,60"/>
<path class="st1" d="M68,20.1c0.6,0.8,6.7,7.8,6.7,7.8l2.4-4.1l-0.8-2.3l2.2-3.8l3.8,2.2l0.7-1.4l-4.4-5.3c-0.3-0.4-0.7-0.7-1.1-1
	c-1.1-0.7-1.9-1.1-2-1.2c-2.8-1.6-6.5-0.7-8.1,2.1C66,15.4,66.4,18.2,68,20.1"/>
<path class="st1" d="M68.8,48.8c0.6,0.4,1.3,0.3,1.6,0.2l2.6-1.2l9,17.3c-3.6,2.4-5.9,6.4-5.9,11c0,7.3,5.9,13.2,13.2,13.2
	c7.3,0,13.2-5.9,13.2-13.2c0-7.3-5.9-13.2-13.2-13.2c-1.7,0-3.3,0.3-4.8,0.9l-9.6-18.5c-0.3-0.7-1.1-0.9-1.8-0.6l-2.6,1.2
	c-1.4-1.6-5.6-6.5-8.3-9.4c1.1-2.7,3.4-8.3,4.3-11.8c0.2-0.8,0.2-1.7-0.1-2.5c-0.8-2.2-3.2-3.3-5.4-2.5c-1.5,0.5-2.5,1.9-2.7,3.3
	c-0.7,3.9-2.1,13.7-2.1,13.7c0,0.3,0,0.6,0,0.9c0.1,0.6,0.5,1.2,0.9,1.6C57.1,39.2,68.4,48.5,68.8,48.8 M89.1,86.4
	c-5.8,0-10.4-4.7-10.4-10.4c0-3.5,1.8-6.7,4.5-8.5l4.8,9.2c0.2,0.5,0.7,0.7,1.2,0.7c0.2,0,0.4-0.1,0.6-0.2c0.7-0.4,0.9-1.2,0.6-1.9
	l-4.8-9.2c1.1-0.4,2.3-0.6,3.5-0.6c5.8,0,10.4,4.7,10.4,10.4C99.6,81.7,94.9,86.4,89.1,86.4"/>
<path class="st1" d="M40.9,43.8c-0.2,0.8-0.2,1.6,0.1,2.5c0.1,0.4,0.2,0.8,0.4,1.2c0.8,1.8,8.1,12.8,10.4,16.1
	c-0.4,3.6-1.6,14-2.2,18.8c-2.1-1.5-4.7-2.4-7.6-2.4c-7.3,0-13.2,5.9-13.2,13.2c0,7.3,5.9,13.2,13.2,13.2c7.3,0,13.2-5.9,13.2-13.2
	c0-2.8-0.9-5.3-2.3-7.4c0.1-0.1,0.1-0.2,0.1-0.4c0,0,4.9-21.9,5-22c0-0.2,0.1-0.4,0.1-0.6c0-0.3,0-0.7-0.1-1c0-0.1-1-2.6-2.2-5.8
	c2.4,1.1,4.5,2.1,5.9,2.7c1.6,7.5,5,21.6,5.3,23c0.3,1.1,1.4,1.7,2.4,1.4c0.9-0.3,1.4-1.1,1.3-2c0,0-2.8-24.9-2.8-25.1
	c-0.1-0.9-0.5-1.6-1.1-2.2c0,0,0,0,0,0C65.8,53,52.5,42.1,50.3,40.4c-0.2-0.1-0.2-0.2-0.3-0.2c-1-0.7-2.1-1.1-3.4-1.1
	C43.9,39.1,41.5,41,40.9,43.8 M42.1,103.5c-5.8,0-10.4-4.7-10.4-10.4c0-5.8,4.7-10.4,10.4-10.4c5.8,0,10.4,4.7,10.4,10.4
	C52.5,98.9,47.8,103.5,42.1,103.5"/>
</svg>
