<?xml version="1.0" encoding="utf-8"?>
<!-- Generator: Adobe Illustrator 24.1.2, SVG Export Plug-In . SVG Version: 6.00 Build 0)  -->
<svg version="1.1" id="Layer_1" xmlns="http://www.w3.org/2000/svg" xmlns:xlink="http://www.w3.org/1999/xlink" x="0px" y="0px"
	 viewBox="0 0 120 120" style="enable-background:new 0 0 120 120;" xml:space="preserve">
<style type="text/css">
	.st0{fill:#1a1b86;}
	.st1{fill:#FFFFFF;}
</style>
<path class="st0" d="M120,60c0,33.1-26.9,60-60,60C26.9,120,0,93.1,0,60S26.9,0,60,0C93.1,0,120,26.9,120,60"/>
<path class="st1" d="M51.9,86.2l-0.7-1l-3-0.2c-0.5,0-1-0.3-1.3-0.7l-0.5-0.6c0.6-0.5,2.3-1.8,2.9-2.2c1-0.8,1.6-1.9,1.6-3.4l0-0.1
	L49.2,78l0,0.1c0,0.4-0.1,1.4-1,2.1c-0.6,0.5-2.4,1.8-2.9,2.3l-1,0c-0.5,0-1-0.3-1.3-0.7l-1.8-2.3c-2.4,2.3-2.7,6-0.7,8.7
	c2.2,2.9,6.3,3.4,9.2,1.2C50.7,88.6,51.5,87.4,51.9,86.2"/>
<path class="st1" d="M56.6,64.2c0.7,0.7,14.4,13.5,15.1,14c0.8,0.7,2,1.2,3.2,1.3c3,0.2,5.6-2.1,5.8-5.1c0.1-0.9-0.1-1.8-0.5-2.6
	c0,0-6.2-13.3-8.4-17.8c5.1-4.2,15-13.7,15.7-14.6c0.6-0.7,0.5-1.7-0.1-2.3c-0.5-0.6-1.5-0.7-2.2-0.3C84.5,37.4,66.5,50.2,66,50.6
	c-0.7,0.6-1.2,1.5-1.2,2.5c0,0.2,0,0.5,0.1,0.7c0.3,1.3,1.2,5.4,2.2,9.7L61.3,60c-0.7-2.6-5.4-18.4-5.9-20c-0.1-0.4-0.7-1.2-1.8-1.1
	c-0.9,0.1-1.4,1-1.4,1.7c0.1,1.1,3.3,21.3,3.6,22.1C55.9,63.3,56.2,63.8,56.6,64.2"/>
<path class="st1" d="M74.8,36.6c2,0,4-0.4,5.9-1.4c6.5-3.2,9.2-11.2,5.9-17.7c-2.3-4.6-7-7.3-11.8-7.3c-2,0-4,0.4-5.9,1.4
	c-6.5,3.2-9.2,11.2-5.9,17.7C65.3,33.9,70,36.6,74.8,36.6 M70.2,14c1.5-0.7,3-1.1,4.6-1.1c4,0,7.6,2.2,9.4,5.8
	c1.2,2.5,1.4,5.3,0.5,8c-0.9,2.6-2.8,4.8-5.2,6c-1.5,0.7-3,1.1-4.6,1.1c-4,0-7.6-2.2-9.4-5.8C62.9,22.8,65,16.6,70.2,14"/>
<path class="st1" d="M41.1,64c0.3,0.6,1,1,1.8,0.7l2.3-1c1.5,1.8,6.9,8,9.8,10.9c0.4,2.5,1.4,10.2,1.7,12.1c0.4,2.3,2.6,3.9,5.1,3.2
	c2.3-0.7,3.2-3.3,2.6-5c-0.6-1.7-4.7-12-4.8-12.5c-0.2-0.4-0.5-0.7-0.7-0.9C58.7,71.3,47.2,61.1,46.9,61c-0.5-0.4-1.2-0.5-1.8-0.3
	l-2.1,0.9l-6.9-15.4c5.7-3.3,7.9-10.5,4.9-16.5c-2.2-4.4-6.7-7-11.3-7c-1.9,0-3.8,0.4-5.6,1.3c-6.2,3.1-8.8,10.7-5.7,16.9
	c2.2,4.4,6.7,7,11.3,7c1.3,0,2.6-0.2,3.9-0.6L41.1,64z M29.8,45.2c-3.8,0-7.1-2.1-8.8-5.5c-2.4-4.9-0.4-10.8,4.4-13.2
	c1.4-0.7,2.8-1,4.4-1c3.8,0,7.1,2.1,8.8,5.5c2.3,4.6,0.7,10-3.6,12.7l-4-8.9c-0.3-0.7-1.1-1-1.8-0.7c-0.7,0.3-1,1.1-0.7,1.8l4,8.9
	C31.6,45,30.7,45.2,29.8,45.2"/>
<path class="st1" d="M102.3,72.1c-2.9,12.1-9.7,23-18.3,31.1c-7.4,6.9-20,15.2-38,15.2c4.5,1.1,9.2,1.7,14.1,1.7c0.4,0,0.7,0,1,0
	c9.3-2.5,17.9-7.3,25.3-14.2c8.8-8.2,15.5-19.1,18.7-30.1h12.9c0.3-1.2,0.6-2.4,0.9-3.6H102.3z"/>
</svg>
