<?xml version="1.0" encoding="utf-8"?>
<!-- Generator: Adobe Illustrator 24.1.2, SVG Export Plug-In . SVG Version: 6.00 Build 0)  -->
<svg version="1.1" id="Layer_1" xmlns="http://www.w3.org/2000/svg" xmlns:xlink="http://www.w3.org/1999/xlink" x="0px" y="0px"
	 viewBox="0 0 120 120" style="enable-background:new 0 0 120 120;" xml:space="preserve">
<style type="text/css">
	.st0{fill:#1a1b86;}
	.st1{fill:#FFFFFF;}
</style>
<path class="st0" d="M120,60c0,33.1-26.9,60-60,60C26.9,120,0,93.1,0,60S26.9,0,60,0C93.1,0,120,26.9,120,60"/>
<path class="st1" d="M89.3,26.5c-3,0-5.5,2.4-5.5,5.5c0,3,2.4,5.5,5.5,5.5c3,0,5.5-2.4,5.5-5.5C94.7,29,92.3,26.5,89.3,26.5"/>
<path class="st1" d="M69.1,43.7c-1.3-5.4-3.2-13-4.6-18.5c-0.6-2.6-3.3-4.4-6.1-3.9c-2.2,0.4-3.8,2.3-4.1,4.4
	C53.6,30.9,53,37,52.5,43.4c-0.3,0.2-0.6,0.5-0.9,0.8c-2.8-5.6-8.6-9.5-15.3-9.5c-9.4,0-17.1,7.7-17.1,17.1s7.7,17.1,17.1,17.1
	c9.4,0,17.1-7.7,17.1-17.1c0-0.2,0-0.5,0-0.7c1.6-1,3.2-2,4.5-2.8c0.7-0.5,1.3-1.2,1.6-2.1l1.3-4.6c0.5,1.1,0.9,2.2,1.4,3.3
	C60.8,50.1,57,67,57,67c-0.1,0.3-0.1,0.6,0,1c0.3,0.9,1.3,1.5,2.3,1.2c0.6-0.2,1-0.7,1.2-1.2l8.4-22C69.2,45.2,69.3,44.4,69.1,43.7
	 M36,57.1c-0.5,0.4-0.7,1.1-0.6,1.8c0.2,1,1.2,1.7,2.2,1.6c0.2,0,0.4-0.1,0.6-0.2c0,0,0,0,0.1-0.1c0,0,0,0,0,0
	c0.9-0.6,6.7-4,12.3-7.4c-0.5,7.5-6.7,13.4-14.3,13.4c-7.9,0-14.3-6.4-14.3-14.3s6.4-14.3,14.3-14.3c5.8,0,10.9,3.5,13.1,8.5
	C43.6,50.6,36,57.1,36,57.1"/>
<path class="st1" d="M74.7,47.3c0.2,0.3,8.6,9.6,8.6,9.6l-3.4-0.7c-0.7-0.2-1.4,0.3-1.6,1l-2.9,11.3c-0.9-0.2-1.9-0.3-2.9-0.3
	c-9.4,0-17.1,7.7-17.1,17.1c0,9.4,7.7,17.1,17.1,17.1c9.4,0,17.1-7.7,17.1-17.1c0-7.5-4.8-13.9-11.5-16.2l2.6-10l6.3,1.4
	c0.1,0,0.3,0.1,0.4,0.1c0.9,0,1.7-0.8,1.7-1.7c0-0.4-0.1-0.7-0.3-1c0,0-8.5-12.3-9-13c0.3-2.9,0.9-10.2,1.2-13.3
	c0-0.6,0-1.1-0.2-1.7c-0.8-2.3-3.2-3.5-5.4-2.7c-1.9,0.6-3.1,2.5-2.9,4.4c0.2,2.2,0.8,8,2,14.6C74.3,46.5,74.4,47,74.7,47.3
	 M72.4,99.7c-7.9,0-14.3-6.4-14.3-14.3c0-7.9,6.4-14.3,14.3-14.3c0.8,0,1.5,0.1,2.2,0.2L71.1,85c-0.2,0.7,0.3,1.5,1,1.7
	c0.1,0,0.2,0,0.3,0c0.6,0,1.2-0.4,1.3-1l3.5-13.8c5.5,2,9.5,7.3,9.5,13.5C86.8,93.3,80.3,99.7,72.4,99.7"/>
<path class="st1" d="M74.7,47.3c0.2,0.3,8.6,9.6,8.6,9.6l-3.4-0.7c-0.7-0.2-1.4,0.3-1.6,1l-2.9,11.3c-0.9-0.2-1.9-0.3-2.9-0.3
	c-9.4,0-17.1,7.7-17.1,17.1c0,9.4,7.7,17.1,17.1,17.1c9.4,0,17.1-7.7,17.1-17.1c0-7.5-4.8-13.9-11.5-16.2l2.6-10l6.3,1.4
	c0.1,0,0.3,0.1,0.4,0.1c0.9,0,1.7-0.8,1.7-1.7c0-0.4-0.1-0.7-0.3-1c0,0-4.1-5.9-7.3-10.4c-0.5-0.8-1.3-1.9-1.8-2.6
	c0.3-2.9,0.9-10.2,1.2-13.3c0-0.6,0-1.1-0.2-1.7c-0.8-2.3-3.2-3.5-5.4-2.7c-1.9,0.6-3.1,2.5-2.9,4.4c0.2,2.2,0.8,8,2,14.6
	C74.3,46.5,74.4,47,74.7,47.3 M72.4,99.7c-7.9,0-14.3-6.4-14.3-14.3c0-7.9,6.4-14.3,14.3-14.3c0.8,0,1.5,0.1,2.2,0.2L71.1,85
	c-0.2,0.7,0.3,1.5,1,1.7c0.1,0,0.2,0,0.3,0c0.6,0,1.2-0.4,1.3-1l3.5-13.8c5.5,2,9.5,7.3,9.5,13.5C86.8,93.3,80.3,99.7,72.4,99.7"/>
</svg>
