<?xml version="1.0" encoding="utf-8"?>
<!-- Generator: Adobe Illustrator 24.1.2, SVG Export Plug-In . SVG Version: 6.00 Build 0)  -->
<svg version="1.1" id="Layer_1" xmlns="http://www.w3.org/2000/svg" xmlns:xlink="http://www.w3.org/1999/xlink" x="0px" y="0px"
	 viewBox="0 0 120 120" style="enable-background:new 0 0 120 120;" xml:space="preserve">
<style type="text/css">
	.st0{fill:#1a1b86;}
	.st1{fill:#FFFFFF;}
</style>
<path class="st0" d="M120,60c0,33.1-26.9,60-60,60S0,93.1,0,60S26.9,0,60,0S120,26.9,120,60"/>
<path class="st1" d="M71.1,27c2,0.9,3.3,1.4,5.9,2.8c0,0.2,0,0.4-0.1,0.7c0,3.2,2.5,5.9,5.6,5.9c3.2,0,5.8-2.5,5.8-5.8
	c0-0.2,0-0.4,0-0.6c-0.1-0.6-0.2-1.2-0.4-1.9c-0.6-1.6-2.2-3.2-4.4-3.7c-3.9-0.9-9.7,0.4-12.4,1.3C70.6,25.9,70.6,26.8,71.1,27"/>
<path class="st1" d="M69.9,50.5c0.5-0.5,0.8-1.3,0.8-2c0-0.9-0.5-1.8-1.2-2.3c-4.5-3.1-9.9-6.6-15.8-10.2c-1.3-0.8-3-1.1-4.7-0.6
	c-2.7,0.9-4.1,3.8-3.5,6.4c0.6,2.6,11.6,42.1,12,43.2c0.2,0.7,0.9,1.2,1.7,1.2c1,0,1.7-0.8,1.7-1.7c0,0,0-0.1,0-0.1
	c0-0.2-1.4-10.4-2.8-20.9C62.9,58.2,69.5,51,69.9,50.5 M55.9,47.7c2.6,0.9,4.7,1.6,7,2.4c-1.7,2.2-3.6,4.8-5.6,7.5
	C56.7,53.8,56.3,50.6,55.9,47.7"/>
<path class="st1" d="M75.7,51.5v2.8c0,0.2,0,0.4,0.1,0.6l2.3,5.2c-5.3,2.9-8.9,8.5-8.9,15c0,9.4,7.7,17.1,17.1,17.1
	c9.4,0,17.1-7.7,17.1-17.1c0-9.4-7.7-17.1-17.1-17.1c-2,0-3.9,0.3-5.6,1L78.5,54v-1.2c3.6,0,14.2,0,14.2,0c0.1,0,0.2,0,0.3,0
	c0.5-0.1,1-0.5,1.2-0.9c0.2-0.5,1.5-3.7,2.2-5.4c0.2-0.6-0.1-1.3-0.7-1.6c-0.6-0.3-1.3,0.1-1.6,0.7l-1.6,4
	c-1.5-0.2-10.3-1.6-12.2-1.9c-1.1-3.1-4.2-11.6-5.3-14c-1-2.2-3.2-3.2-5.3-2.4c-2.1,0.8-3.2,3.2-2.4,5.3c0.1,0.2,0.1,0.3,0.2,0.5
	C69.4,40.9,75.7,51.5,75.7,51.5 M86.3,89.4C78.4,89.4,72,83,72,75.1c0-5.3,2.9-10,7.3-12.5l5.8,13c0.2,0.5,0.7,0.8,1.3,0.8
	c0.2,0,0.4,0,0.6-0.1c0.7-0.3,1-1.1,0.7-1.8l-5.8-13c1.4-0.5,2.9-0.7,4.5-0.7c7.9,0,14.3,6.4,14.3,14.3
	C100.7,83,94.2,89.4,86.3,89.4"/>
<path class="st1" d="M33.7,58c-9.4,0-17.1,7.7-17.1,17.1s7.7,17.1,17.1,17.1c9.4,0,17.1-7.7,17.1-17.1S43.1,58,33.7,58"/>
</svg>
