<?xml version="1.0" encoding="utf-8"?>
<!-- Generator: Adobe Illustrator 24.1.2, SVG Export Plug-In . SVG Version: 6.00 Build 0)  -->
<svg version="1.1" id="Layer_1" xmlns="http://www.w3.org/2000/svg" xmlns:xlink="http://www.w3.org/1999/xlink" x="0px" y="0px"
	 viewBox="0 0 120 120" style="enable-background:new 0 0 120 120;" xml:space="preserve">
<style type="text/css">
	.st0{fill:#1a1b86;}
	.st1{fill:#FFFFFF;}
</style>
<circle class="st0" cx="60" cy="60" r="60"/>
<path class="st1" d="M84.5,71l-2.3-24.2c0-0.4-0.2-0.7-0.4-1L58.4,18L52.8,0.4c-1.2,0.1-2.4,0.3-3.6,0.5l5.6,17.6
	c-0.8,1.2-8.2,12.9-9.5,15c-1,1.1-4.2,4.2-6.7,6.8c3.3-1.3,7.8-2.9,10.8-3.9c0.4-0.7,2.1-5.4,3.4-9c-0.7,3.8-1.5,7.9-1.9,10.4
	c-3.8,1.2-11.2,3.9-14.3,5.3c-0.9,0.4-1.7,1.2-2.1,2.2c-1,2.2,0,4.7,2.2,5.7c1.1,0.5,2.3,0.5,3.4,0c1-0.4,13.1-7.5,14.6-8.4
	c1-0.6,1.5-1.4,1.6-2.3c0.1-0.7,1-11.6,1.5-17.4l20.8,24.7l1.2,12.8c-0.1-0.1-0.2-0.2-0.3-0.3c-0.5-0.4-18.5-12.6-19.2-13
	c-0.4-0.3-1.1-0.5-1.7-0.5c-1.4-0.1-2.6,0.7-3.2,1.8C55,49.4,46.2,66,45.7,67c-0.5,0.9-0.7,1.8-0.7,2.9c0,2.7,1.8,5,4.4,5.7
	c2.9,0.8,16.4,3.9,21.6,4.9c6.7,3.6,17.9,9.1,21.2,10.5c0.3,0.1,0.5,0.2,0.8,0.2c1,0,1.9-0.8,2-1.8l9.3,11.2
	c0.8-0.9,1.6-1.8,2.4-2.8L84.5,71z M74.1,74c-0.1-0.1-0.3-0.2-0.4-0.2l-16.5-7.3c1.3-3.8,2.5-7.4,3.6-11.2
	c6.7,3.4,15.5,7.8,16.9,8.4c0.3,0.1,0.5,0.2,0.7,0.2c0.7,0,1.4-0.3,1.7-0.9l0.9,9c0,0.4,0.2,0.7,0.4,1l11.1,13.2L74.1,74z"/>
<path class="st1" d="M38.4,34.4c0-3.5-2.8-6.3-6.3-6.3c-3.5,0-6.3,2.8-6.3,6.3c0,3.5,2.8,6.3,6.3,6.3C35.6,40.7,38.4,37.9,38.4,34.4
	"/>
</svg>
