<?xml version="1.0" encoding="utf-8"?>
<!-- Generator: Adobe Illustrator 24.1.2, SVG Export Plug-In . SVG Version: 6.00 Build 0)  -->
<svg version="1.1" id="Layer_1" xmlns="http://www.w3.org/2000/svg" xmlns:xlink="http://www.w3.org/1999/xlink" x="0px" y="0px"
	 viewBox="0 0 120 120" style="enable-background:new 0 0 120 120;" xml:space="preserve">
<style type="text/css">
	.st0{fill:#1a1b86;}
	.st1{fill:#FFFFFF;}
</style>
<ellipse transform="matrix(0.9239 -0.3827 0.3827 0.9239 -18.3938 27.5282)" class="st0" cx="60" cy="60" rx="60" ry="60"/>
<path class="st1" d="M99.4,45.8c-1.1-0.3-14.2-4.6-16.7-5.4c-1.4-1.2-6.9-5.7-10.4-8.5c0,2.8-0.4,6.4-1.4,9.3
	c3.8,1.9,7.9,3.8,9.5,4.3c0,0,0.1,0,0.1,0c2.3,0.7,17.2,3.2,18.2,3.4c0.4,0,0.7,0,1.1-0.2c0.8-0.5,1-1.5,0.5-2.3
	C100.1,46.1,99.8,45.9,99.4,45.8"/>
<path class="st1" d="M68.9,27.8c3.4,1.1,7.1-0.9,8.1-4.3c1.1-3.4-0.9-7.1-4.3-8.1c-3.4-1.1-7.1,0.9-8.1,4.3
	C63.5,23.1,65.5,26.8,68.9,27.8"/>
<path class="st1" d="M72.8,85.1c-3.6,0-6.5,2.9-6.5,6.5c0,3.6,2.9,6.5,6.5,6.5c3.6,0,6.5-2.9,6.5-6.5C79.3,88,76.4,85.1,72.8,85.1"
	/>
<path class="st1" d="M27.1,47.8c0.4,0.1,0.8,0,1.2-0.1c1.9-0.8,16.6-8,16.6-8s13.6-2,15.7-2.5c2.1-0.5,3.8-1.9,4.2-4
	c0.6-2.8-1.2-5.5-3.9-6.1c-1.1-0.2-2.1,0-3.1,0.3c-1,0.3-15.1,6.4-15.1,6.4c-0.2,0.1-0.4,0.2-0.5,0.3L26.6,44.7
	c-0.3,0.2-0.6,0.6-0.7,1C25.6,46.6,26.2,47.5,27.1,47.8"/>
<path class="st1" d="M62.1,49.7c-2.2-0.5-4.6,0.2-6.1,2.1c-0.3,0.4-0.6,0.9-0.9,1.4c-1.6,3.1-5.4,11.8-6.9,16.1
	c-1.3-0.2-24.3-3.7-24.9-3.7c-0.6,0-1,0-1.5,0.3c-1,0.7-1.3,2-0.6,3c0.3,0.5,0.8,0.8,1.2,0.9l27.1,7.3c1.5,0.4,3.1-0.2,4.1-1.5
	l8.8-12.3c2.9,2.7,6.4,5.5,10.3,8.3l14.9,24.1c0.3,0.5,0.8,0.8,1.4,0.9c1.1,0.1,2.1-0.6,2.2-1.7c0.1-0.4,0-0.8-0.2-1.1L78.5,67.9
	c-0.1-0.3-0.3-0.5-0.5-0.7c0,0-11.7-14.6-12.8-15.5C64.1,50.5,63.2,50,62.1,49.7"/>
</svg>
