<?xml version="1.0" encoding="utf-8"?>
<!-- Generator: Adobe Illustrator 24.1.2, SVG Export Plug-In . SVG Version: 6.00 Build 0)  -->
<svg version="1.1" id="Layer_1" xmlns="http://www.w3.org/2000/svg" xmlns:xlink="http://www.w3.org/1999/xlink" x="0px" y="0px"
	 viewBox="0 0 120 120" style="enable-background:new 0 0 120 120;" xml:space="preserve">
<style type="text/css">
	.st0{fill:#1a1b86;}
	.st1{fill:#FFFFFF;}
</style>
<path class="st0" d="M120,60c0,33.1-26.9,60-60,60C26.9,120,0,93.1,0,60C0,26.9,26.9,0,60,0C93.1,0,120,26.9,120,60"/>
<path class="st1" d="M37,54.1c1.5,1.4,11.3,8.6,12.6,9.3c0,0,0.8,0.5,1.8,0.5c0.7,0,1.6-0.4,2-0.6c1.1-0.5,4.5-2,4.5-2
	c-2.8,5.2-4.5,9.1-5,10.4c-0.2,0.6-0.4,1.4-0.4,2.1c0,3.3,2.6,5.9,5.9,6c2.3,0,3.8-0.8,5.3-3.1c0.2-0.4,0.5-1,0.9-1.7
	c2.3-5.2,6.8-19,7.5-21.5c2.4-5.6,9.9-27.1,10.6-29.9c0.1-0.3,0.1-0.5,0.1-0.7c0.1-1.1-0.9-2.1-2-2.1c-0.8,0-1.3,0.4-1.7,0.9
	c-0.1,0.1-0.2,0.3-0.3,0.5c-0.2,0.3-6.1,11.4-12.2,22.8c-3.4,0.4-8.2,0.9-9.9,1.1c-1.2-0.3-3.6-0.9-6-1.4c1,2.2,1.7,4.6,2.1,7
	c2.7-0.1,3.5-0.2,4.1-0.3c0.1,0,0.2,0,0.2,0c0.7-0.2,4.1-1.1,7.1-2l-2.7,5c-2.7,0.7-5.9,1.6-8.1,2.2c-0.2,0.1-0.5,0.1-0.7,0.2
	c-2.6-3.3-7.7-9.6-8.2-10.1c-0.8-0.9-2-1.5-3.3-1.6c-2.9-0.3-5.4,1.8-5.7,4.7C35.1,51.4,35.8,53,37,54.1"/>
<path class="st1" d="M19.3,104.1c1.4,1.3,2.8,2.5,4.3,3.6h72.8c1.5-1.1,2.9-2.3,4.3-3.6H19.3z"/>
<path class="st1" d="M48.4,41.3c1.5-1,2.5-2.6,2.8-4.6c0.5-3.6-2.1-7-5.7-7.5c-3.6-0.5-7,2.1-7.5,5.7c-0.3,2.3,0.6,4.5,2.3,5.9
	c0.9,0.8,2.1,1.4,3.4,1.5C45.4,42.7,47,42.2,48.4,41.3"/>
</svg>
