<?xml version="1.0" encoding="utf-8"?>
<!-- Generator: Adobe Illustrator 24.1.2, SVG Export Plug-In . SVG Version: 6.00 Build 0)  -->
<svg version="1.1" id="Layer_1" xmlns="http://www.w3.org/2000/svg" xmlns:xlink="http://www.w3.org/1999/xlink" x="0px" y="0px"
	 viewBox="0 0 120 120" style="enable-background:new 0 0 120 120;" xml:space="preserve">
<style type="text/css">
	.st0{fill:#1a1b86;}
	.st1{fill:#FFFFFF;}
</style>
<path class="st0" d="M120,60c0,33.1-26.9,60-60,60C26.9,120,0,93.1,0,60S26.9,0,60,0C93.1,0,120,26.9,120,60"/>
<path class="st1" d="M92.4,70.4c0.7-0.8,0.6-2.1-0.2-2.8c-0.4-0.4-0.9-0.5-1.4-0.5c-1.5,0.1-22,4.2-24.4,4.7
	c-2.9-0.1-15.6-0.6-19.9-0.4c-0.3,0-0.5,0-0.8,0.1c-0.6,0.1-1.2,0.3-1.8,0.6c-2.5,1.5-18.3,15.7-18.3,15.7c-1.6,1.4-1.7,3.8-0.4,5.4
	c0.4,0.4,0.8,0.7,1.2,0.9c0,0,23.9,12.3,25.9,13.2c0.3,0.1,0.7,0.2,1.1,0.2c1.2-0.1,2-1.2,1.9-2.3c-0.1-0.6-0.4-1.2-0.9-1.5
	c-1.8-1.4-12.1-8.2-19.2-12.9c4.4-2.7,10.4-6.5,13.4-8.5c4.7-0.8,17.9-3.2,17.9-3.2c0.7-0.1,1.3-0.3,1.8-0.5c0,0,21.5-7,23.3-7.7
	C92.1,70.8,92.2,70.7,92.4,70.4"/>
<path class="st1" d="M99.7,31.2c-7-10.6-17.8-15.8-25.6-18.2c-8.5-2.6-13.5-2.6-16.1-2.8c0,0-14.6,24-15.7,26
	c-0.5,0.8-0.6,1.5-0.6,2.1c0,1.9-0.1,8-0.2,11.9c0.4-0.1,0.9-0.3,1.4-0.3c2.5-0.4,4.5-0.4,6.1,0c-0.6-3.3-1.9-9.1-2.4-11.6
	c1.2-2.7,5.3-11.9,6-13.7c0.1-0.3,0.1-0.6,0-0.9c0-0.1-0.1-0.2-0.1-0.3l6.6-11c4.1,0.2,27.2,2.3,38.7,20c7.3,11.1,9.5,25,6.2,38.2
	c-2.9,11.7-9.7,21.3-18.7,26.2c-0.5,0.3-0.7,0.9-0.4,1.5c0.2,0.4,0.6,0.6,0.9,0.6c0.2,0,0.4,0,0.5-0.1c9.5-5.2,16.7-15.3,19.8-27.6
	C109.6,57.3,107.3,42.7,99.7,31.2"/>
<path class="st1" d="M63.2,52.4c0.4-3.2-1.8-6.2-5-6.6c-3.2-0.4-6.2,1.8-6.6,5c-0.4,3.2,1.8,6.2,5,6.6
	C59.8,57.8,62.8,55.6,63.2,52.4"/>
<path class="st1" d="M45,61.8c0.7,0,1.4-0.1,2.1-0.4c2.1-1,2.9-3.5,1.9-5.6c-0.7-1.5-2.2-2.3-3.8-2.3c-2.5,0-9.5,0.8-15.7,1.5
	l-17.2-0.7c-0.4,0-0.8,0.1-1.1,0.4c-0.6,0.5-0.7,1.5-0.1,2.1c0.2,0.2,0.5,0.4,0.9,0.5c0.5,0.1,17.1,2.6,17.1,2.6S43.6,61.8,45,61.8"
	/>
</svg>
