<?xml version="1.0" encoding="utf-8"?>
<!-- Generator: Adobe Illustrator 24.1.2, SVG Export Plug-In . SVG Version: 6.00 Build 0)  -->
<svg version="1.1" id="Layer_1" xmlns="http://www.w3.org/2000/svg" xmlns:xlink="http://www.w3.org/1999/xlink" x="0px" y="0px"
	 viewBox="0 0 120 120" style="enable-background:new 0 0 120 120;" xml:space="preserve">
<style type="text/css">
	.st0{fill:#1a1b86;}
	.st1{fill:#FFFFFF;}
</style>
<path class="st0" d="M120,60c0,33.1-26.9,60-60,60S0,93.1,0,60C0,26.9,26.9,0,60,0S120,26.9,120,60"/>
<path class="st1" d="M72.2,79.3c-0.9,2.4-0.6,5.3,1.3,7.4c2.6,3,7.3,3.5,10.2,0.8c1.2-1.1,1.9-2.3,2.3-3.7
	c0.7-2.5,5.5-22.3,5.7-25.6c0.4-3.6,0.4-9.9,0.1-16.1c2,3.8,4.2,7.9,5.6,10.6c-0.8,0.6-1.7,1.3-2.7,2c0,1.1-0.1,2.4-0.3,3.9
	c-0.4,3.1-1.3,7.9-2.4,12.8c4.8-5.1,12.4-13.2,13.8-14.6c1-1,1.5-2.4,1.1-3.8c-0.1-0.6-0.4-1.1-0.7-1.6
	c-1.8-2.9-13.4-20.1-15.9-22.6c-0.9-1-2.7-0.9-3.8,0.1c-0.3,0.3-0.4,0.5-0.6,0.8L17.5,68c-2.6,1.5-3.7,5-2.7,8.3
	c1,3.5,3.9,6.1,5.4,5.6c2.6-0.8,1.1-6.9-1.3-11.7l66.5-37.3c-0.5,5.8-1.8,20-2.1,23.6C81.1,60.8,72.9,77.3,72.2,79.3"/>
<path class="st1" d="M74.4,61.2c-1-5.2-6.1-8.7-11.3-7.6c-5.2,1-8.7,6.1-7.6,11.3c1,5.2,6.1,8.7,11.3,7.6
	C72,71.5,75.5,66.4,74.4,61.2"/>
</svg>
