<?xml version="1.0" encoding="utf-8"?>
<!-- Generator: Adobe Illustrator 24.1.2, SVG Export Plug-In . SVG Version: 6.00 Build 0)  -->
<svg version="1.1" id="Layer_1" xmlns="http://www.w3.org/2000/svg" xmlns:xlink="http://www.w3.org/1999/xlink" x="0px" y="0px"
	 viewBox="0 0 120 120" style="enable-background:new 0 0 120 120;" xml:space="preserve">
<style type="text/css">
	.st0{fill:#1a1b86;}
	.st1{fill:#FFFFFF;}
</style>
<path class="st0" d="M120,60c0,33.1-26.9,60-60,60C26.9,120,0,93.1,0,60C0,26.9,26.9,0,60,0C93.1,0,120,26.9,120,60"/>
<path class="st1" d="M107.7,47.8c0.7-0.2,1.3-0.8,1.3-1.6c0-1-0.7-1.9-1.9-1.8c-3.1,0.1-12.5,0.7-16.2,1c-1.7-0.7-6.9-2.8-12.1-5.2
	c0.5,2.3,0.6,5.3,0,8.6c5,1.2,11.1,2.2,11.2,2.2c0.1,0,0.2,0,0.4,0c0.2,0,0.4,0,0.6,0C95.7,50.3,105.9,48.2,107.7,47.8"/>
<path class="st1" d="M61,45.5c2,0.5,4.2-0.3,5.3-2.2c1.4-2.3,0.7-5.3-1.6-6.7c-0.7-0.4-1.5-0.7-2.3-0.7c-3.9-0.2-9.2-0.4-12.6-0.4
	c-0.8-5.1-2-11.7-2.7-15.4c2.7,0.1,5.1-1.9,5.5-4.6c0.5-3-1.6-5.9-4.6-6.4c-3-0.5-5.9,1.5-6.4,4.5c-0.2,1.5,0.1,2.9,0.9,4
	c0,0.1,0,0.2,0,0.3c0,0,0.8,15.5,1.3,20.9c0.1,1.3,1,2.3,2.3,2.7C47.8,42.1,56.1,44.4,61,45.5"/>
<path class="st1" d="M71.8,35.6c3.5,0.3,6.6-2.3,6.8-5.8c0.3-3.5-2.3-6.6-5.8-6.8c-3.5-0.3-6.5,2.3-6.8,5.8
	C65.7,32.2,68.3,35.3,71.8,35.6"/>
<path class="st1" d="M62.9,62.7c-3,6.7-6.9,18-8.3,22.1c-7.5,3.9-24.2,13.4-24.6,13.7c-0.6,0.4-1,0.9-1.1,1.6
	c-0.2,1.2,0.7,2.3,1.9,2.5c0.4,0.1,0.8,0,1.2-0.1c1.1-0.4,20.9-7.9,27-10.5l25.3-1.5c1.8-0.1,3.1-1.1,3.5-2.7
	c0.2-0.8,0.1-1.6-0.2-2.3C87,84.2,76.4,65.4,74.1,62c-1.2-1.8-3.1-3-5.5-3C66.1,59,63.9,60.6,62.9,62.7 M70.4,74.9
	c2.5,3.3,4.7,6.2,7,9.1c-4.4,0.7-9.1,1.4-13.2,2C65.8,83.1,67.9,79.3,70.4,74.9"/>
</svg>
