<?xml version="1.0" encoding="utf-8"?>
<!-- Generator: Adobe Illustrator 24.1.2, SVG Export Plug-In . SVG Version: 6.00 Build 0)  -->
<svg version="1.1" id="Layer_1" xmlns="http://www.w3.org/2000/svg" xmlns:xlink="http://www.w3.org/1999/xlink" x="0px" y="0px"
	 viewBox="0 0 120 120" style="enable-background:new 0 0 120 120;" xml:space="preserve">
<style type="text/css">
	.st0{fill:#1a1b86;}
	.st1{fill:#FFFFFF;}
</style>
<path class="st0" d="M120,60c0,33.1-26.9,60-60,60C26.9,120,0,93.1,0,60C0,26.9,26.9,0,60,0C93.1,0,120,26.9,120,60"/>
<path class="st1" d="M82.4,83.8c-1.6,0-2.8,1.3-2.8,2.8c0,1.6,1.3,2.8,2.8,2.8c1.6,0,2.8-1.3,2.8-2.8C85.2,85,83.9,83.8,82.4,83.8"
	/>
<path class="st1" d="M82.4,92.7c-1.6,0-2.8,1.3-2.8,2.8c0,1.6,1.3,2.8,2.8,2.8c1.6,0,2.8-1.3,2.8-2.8C85.2,93.9,83.9,92.7,82.4,92.7
	"/>
<path class="st1" d="M54.9,31.8l3.7,0c0,0.7,0,1.3,0,1.9c0,1,0.2,1.7,0.7,2.4c0.2,0.3,1,1.2,1.4,1.5l1.2-1.1c0,0-1.1-1-1.4-1.6
	c-0.2-0.3-0.2-0.7-0.2-1.3c0-0.6,0-1.3,0-1.9l6.6,0c0.1,0,0.2-0.2,0.1-0.3c-1.1-0.8-2.2-1.6-2.2-1.6s-0.4-5.1-5.2-5
	c-4.7,0.2-5,4-4.8,6.6C54.6,31.6,54.7,31.8,54.9,31.8"/>
<path class="st1" d="M92.6,53.6l-8.9-24.1c-0.2-0.5-1-0.5-1.1,0.1l-2,6.2c-3.4-0.3-10.6,0.6-16.9,6c-2.7,2.3-4.9,5.3-6.4,8.1
	c-2.2-0.9-5.3-2-7.8-2.9c1.8-2.1,4.4-5.1,4.9-5.8c0.3-0.5,0.6-1,0.6-1.6c0.3-2.2-1.2-4.3-3.4-4.6c-1.6-0.2-2.9,0.4-3.9,1.7
	c-1,1.3-5.7,9.6-6,10.7c-0.1,0.4-0.2,0.8-0.2,1.2c0.1,1.3,1,2.4,2.2,2.6c1.2,0.3,7.5,1.1,12.1,1.8c-0.5,1.1-0.9,2.1-1.2,2.9
	l-9.1,4.2l-8.5-12.2c0,0-3.1,1.1-4.6,3.8c-0.6,1.1-0.9,2.4-0.7,4c0.2,1.1,0.6,1.9,1.3,2.7c0.6,0.7,2.9,2.7,5.6,4.9l-19.4,9
	c5.8,6.3,13.1,8.2,21.2,8.6c7.4,0.3,12.7-0.8,21.5-4.5c0.8-0.3,13-5.7,18.4-8.2c-0.4,2.4-0.7,5.1-0.9,6.6l-5,0.9
	c-0.1,0-0.2,0-0.3,0.1c-0.3,0.1-0.6,0.4-0.7,0.7c0,0.1-0.1,0.2-0.1,0.3l-1.4,4.7c0,0,0,0.1,0,0.1c0,0.3,0.3,0.5,0.6,0.5
	c0,0,0.1,0,0.1,0c0,0,8.2-3.6,9-4c0.3-0.2,0.5-0.3,0.6-0.4c0.2-0.2,0.3-0.4,0.4-0.6c0.6-1.5,3.7-11.2,4.1-12.5
	c0.1-0.4,0.2-1,0.2-1.5c-0.2-1.5-1.4-2.3-2.5-2.5c-0.1,0-0.4-0.1-1.1,0c-2.1,0.3-7.4,1.3-11,2.2c1.3-9,4.3-12.9,7.7-15.5
	c2.3,2,5.8,5.2,9.5,8.8c0.2,0.2,0.5,0.3,0.9,0.2c0.4-0.2,2-1.4,2.2-1.6C92.7,54.1,92.7,53.9,92.6,53.6"/>
</svg>
