<?xml version="1.0" encoding="utf-8"?>
<!-- Generator: Adobe Illustrator 24.1.2, SVG Export Plug-In . SVG Version: 6.00 Build 0)  -->
<svg version="1.1" id="Layer_1" xmlns="http://www.w3.org/2000/svg" xmlns:xlink="http://www.w3.org/1999/xlink" x="0px" y="0px"
	 viewBox="0 0 120 120" style="enable-background:new 0 0 120 120;" xml:space="preserve">
<style type="text/css">
	.st0{fill:#1a1b86;}
	.st1{fill:#FFFFFF;}
</style>
<path class="st0" d="M120,60c0,33.1-26.9,60-60,60C26.9,120,0,93.1,0,60C0,26.9,26.9,0,60,0C93.1,0,120,26.9,120,60"/>
<path class="st1" d="M30.6,92.3c-1.5,0-2.8,1.3-2.8,2.8c0,1.6,1.3,2.8,2.8,2.8c1.5,0,2.8-1.3,2.8-2.8C33.4,93.6,32.1,92.3,30.6,92.3
	"/>
<path class="st1" d="M55.1,29.3c3.3,0,6-2.7,6-6c0-3.3-2.7-6-6-6c-3.3,0-6,2.7-6,6C49.1,26.6,51.8,29.3,55.1,29.3"/>
<path class="st1" d="M82,53.9c-0.1-1.7-1-3.1-2.4-4.1c-2.5-1.7-5.9-1-7.6,1.4c-2,2.5-12.8,17.5-12.8,17.5c-0.2,0.4-0.4,0.8-0.5,1.2
	l-7.7,27.7c-0.1,0.4-0.1,0.8,0,1.2c0.3,1.2,1.5,1.8,2.7,1.5c0.6-0.2,1.1-0.6,1.3-1.1c0.7-0.9,8.8-20.6,10.8-26
	c1.6-1.3,4.7-4.1,7.8-7.1c1,4.4,1.9,8.4,1.9,8.4c0.5,1.8,2.2,3,4,2.9c2.8-0.1,25.5-0.6,26-0.6c0.4,0,0.8-0.1,1.2-0.3
	c1-0.6,1.2-1.9,0.6-2.9c-0.3-0.5-0.8-0.8-1.3-0.9c-1.5-0.2-16-2-23.1-2.7C82.5,65.3,82.1,56.8,82,53.9"/>
<path class="st1" d="M50,62.1c0,0.1,0,0.2,0,0.3c0,0-22,18.3-23.2,19.2c-0.6,0.5-1.1,0.7-1.6,0.6c-0.2,0-0.4-0.1-0.5-0.3
	c-0.4-0.6,0.2-1.2,0.5-1.5c0.7-0.6,0.7-1.5,0.2-2.1c-0.5-0.6-1.5-0.7-2.1-0.1c-2.1,1.7-1.9,4-0.9,5.3c0.6,0.8,1.5,1.4,2.5,1.5
	c0.3,0,0.6,0,0.8,0c1-0.1,2.3-0.8,3.2-1.5c1.9-1.6,48.1-40.8,50.1-42.5c0.4-0.4,0.7-0.9,0.8-1.6c0.1-0.7-0.1-1.3-0.4-1.8
	c-1.6-2.3-9.2-9.9-11.5-11.4c-0.5-0.3-1.1-0.6-1.8-0.7c-2.5-0.4-4.8,1.4-5.2,3.9c-0.2,1.7,0.5,3.3,1.7,4.3c1.4,1.1,6.7,4.1,10.3,6
	c-3.5,3.8-10.2,10.9-11.3,12.1c-0.2,0.2-0.4,0.6-0.4,0.9c0,0,0,0.1,0,0.1c-1.3,1.1-3.6,3-5.9,4.9c2.2-4.4,4.9-10,5.4-11.5
	c0.2-0.6,0.5-2,0.6-3.5c-3.8-3.1-5.7-5.9-6.6-8.4c0,3.2,0.5,8.8,0.7,11C54.6,47.9,50.5,60.4,50,62.1"/>
</svg>
