<?xml version="1.0" encoding="utf-8"?>
<!-- Generator: Adobe Illustrator 24.1.2, SVG Export Plug-In . SVG Version: 6.00 Build 0)  -->
<svg version="1.1" id="Layer_1" xmlns="http://www.w3.org/2000/svg" xmlns:xlink="http://www.w3.org/1999/xlink" x="0px" y="0px"
	 viewBox="0 0 120 120" style="enable-background:new 0 0 120 120;" xml:space="preserve">
<style type="text/css">
	.st0{fill:#1a1b86;}
	.st1{fill:#FFFFFF;}
</style>
<circle class="st0" cx="60" cy="60" r="60"/>
<path class="st1" d="M90.7,68.7c0,0.2,0,0.5,0,0.7c0,2.9-1.2,5.6-3,7.6c1,0.3,2.1,0.4,3.2,0.4c2.7,0,5.2-0.9,7.2-2.4
	c2,1.5,4.5,2.4,7.2,2.4c3.2,0,6.1-1.2,8.3-3.3C106.2,71.7,98.6,69.9,90.7,68.7"/>
<path class="st1" d="M28.7,63.4c1.3-0.3,15.1-5,21.7-7.6c1.1,2.1,2.4,4.8,3.8,7.3c-16.6,1.3-32.4,5.5-46.8,12.1
	c2,1.4,4.3,2.2,6.9,2.2c2.7,0,5.2-0.9,7.2-2.4c2,1.5,4.5,2.4,7.2,2.4s5.2-0.9,7.2-2.4c2,1.5,4.5,2.4,7.2,2.4s5.2-0.9,7.2-2.4
	c2,1.5,4.5,2.4,7.2,2.4c4.9,0,9-3,11.1-7.2c0.1-0.3,0.3-0.6,0.4-0.9c0.5-1.6,0.4-3.2-0.4-4.5c-2.2-4-11.8-16.2-14.2-17.4
	c-0.2-0.1-0.5-0.2-0.7-0.3c-0.8-0.3-1.6-0.2-2.4,0C49.7,47.6,27.8,58.4,27,58.9c-0.5,0.3-0.9,0.8-1,1.4c-0.4,1.3,0.4,2.7,1.7,3.1
	C28,63.5,28.4,63.5,28.7,63.4"/>
<path class="st1" d="M89.6,46.3c2.7,0,5.2-0.9,7.2-2.4c1.7,1.2,3.7,2.1,5.9,2.3L92,27.5c-0.6-1.2-1.3-1.7-2.5-1.7
	c-1.1,0-1.8,0.6-2.5,1.7L76.5,46.3c2.2-0.2,4.2-1.1,5.9-2.3C84.4,45.5,86.9,46.3,89.6,46.3"/>
<path class="st1" d="M79.7,61.4c-4.4,0-8,3.6-8,8s3.6,8,8,8c4.4,0,8-3.6,8-8S84.1,61.4,79.7,61.4"/>
</svg>
