<?xml version="1.0" encoding="utf-8"?>
<!-- Generator: Adobe Illustrator 24.1.2, SVG Export Plug-In . SVG Version: 6.00 Build 0)  -->
<svg version="1.1" id="Layer_1" xmlns="http://www.w3.org/2000/svg" xmlns:xlink="http://www.w3.org/1999/xlink" x="0px" y="0px"
	 viewBox="0 0 120 120" style="enable-background:new 0 0 120 120;" xml:space="preserve">
<style type="text/css">
	.st0{fill:#1a1b86;}
	.st1{fill:#FFFFFF;}
</style>
<path class="st0" d="M120,60c0,33.1-26.9,60-60,60C26.9,120,0,93.1,0,60S26.9,0,60,0C93.1,0,120,26.9,120,60"/>
<path class="st1" d="M44.9,15.1c1.1-0.3,8.3-2.7,11.9-4.1c0.6,1.2,1.3,2.6,2.1,4c-9.2,0.7-17.9,3-25.8,6.7c1.1,0.7,2.4,1.2,3.8,1.2
	c1.5,0,2.9-0.5,4-1.3c1.1,0.8,2.5,1.3,4,1.3c1.5,0,2.9-0.5,4-1.3c1.1,0.8,2.5,1.3,4,1.3c1.5,0,2.9-0.5,4-1.3c1.1,0.8,2.5,1.3,4,1.3
	c2.7,0,5-1.7,6.1-3.9c0.1-0.2,0.2-0.3,0.2-0.5c0.3-0.9,0.2-1.8-0.2-2.5C65.6,13.7,60.3,7,59,6.3c-0.1-0.1-0.3-0.1-0.4-0.2
	c-0.4-0.1-0.9-0.1-1.3,0c-0.9,0.3-13,6.2-13.4,6.5c-0.3,0.2-0.5,0.4-0.6,0.8c-0.2,0.7,0.2,1.5,0.9,1.7
	C44.4,15.1,44.7,15.2,44.9,15.1"/>
<path class="st1" d="M79.2,18c0,0.1,0,0.2,0,0.4c0,1.6-0.6,3.1-1.7,4.2c0.5,0.1,1.1,0.2,1.6,0.2c1.5,0,2.9-0.5,4-1.3
	c1.1,0.8,2.5,1.3,4,1.3c1.8,0,3.4-0.7,4.6-1.8C87.6,19.7,83.5,18.7,79.2,18"/>
<path class="st1" d="M73,14c-2.4,0-4.4,2-4.4,4.4c0,2.4,2,4.4,4.4,4.4c2.4,0,4.4-2,4.4-4.4C77.4,16,75.4,14,73,14"/>
<path class="st1" d="M34.5,105.1c1.2,0.2,4.6,0.7,7.7,1.1c0.6-2.7,1.5-4.9,2.4-6.4c-1.9,0.1-4.2,0.3-6,0.5c1.6-3.7,4.1-9.4,4.5-10.4
	c0.1-0.3,0.2-0.6,0.1-1c-0.2-0.7-1-1.2-1.8-0.9c-0.4,0.1-0.6,0.4-0.8,0.7c-0.8,1.3-6.7,11.4-7.7,13.3c-0.3,0.6-0.3,1.4,0,2.1
	C33.3,104.6,33.9,105,34.5,105.1"/>
<path class="st1" d="M53.1,100.8c-1.2-0.6-2.8-0.5-4,0.3c-1.8,1.3-2.2,3.7-0.9,5.5c0.5,0.7,1.3,1.3,2,1.5c0.2,0.1,11.9,4,13,4.3
	c0.4,0.1,0.9,0.2,1.3,0.1c0.2,0,0.3-0.1,0.5-0.2c1.6-0.8,12-6.4,13.1-7l0.7,1.4c0.9-0.4,1.6-1.3,1.7-2.3c0-0.3,0-0.6-0.1-0.9
	l19.7-8.9c0.3-0.1,0.4-0.5,0.3-0.8c-0.1-0.3-0.5-0.4-0.8-0.3l-19.7,8.9c-0.5-0.6-1.2-1-2-1.1c-0.5-0.1-1,0-1.4,0.2l0.6,1.4
	c-1.2,0.4-9.6,3.5-12.8,4.7C61.7,106,54.8,101.6,53.1,100.8"/>
<path class="st1" d="M53.5,89.1v9.8c3.1-0.4,3.9-2.4,3.9-4.9C57.4,91.5,56.6,89.5,53.5,89.1"/>
<path class="st1" d="M51.7,98.7V89c-2.1,0-3.8,0.5-3.8,0.5v7.7L51.7,98.7z"/>
<path class="st1" d="M101.2,54.5c0.4,0.7,1.2,1.2,2.1,1.1c0.5-0.1,1-0.4,1.3-0.8l7.1-9.8c0.3-0.4,0.3-1,0-1.5
	c-0.4-0.6-1.2-0.7-1.7-0.3c-0.1,0.1-0.1,0.1-0.2,0.2c-2,2.1-3.9,4.2-5.7,6.2c-0.5-2-1.1-3.9-1.6-5.6c-0.2,2.7-0.9,6-1.7,9.3
	L101.2,54.5z"/>
<path class="st1" d="M94.7,40.1c-2.5,1.6-5.5,3.5-8.1,5.1c-0.3,0.2-0.6,0.6-0.7,1c-0.1,0.2-0.1,0.4-0.1,0.6l-0.4,12
	c0,0.6,0.4,1.1,0.9,1.3c0.7,0.2,1.4-0.2,1.7-0.9c0-0.1,0-0.1,0-0.2c0.6-4,1.1-7.7,1.6-10.7c2.8-1,5.5-2.1,7.9-3.1
	c1.3-0.6,2-2,1.6-3.4c-0.4-1.6-2-2.5-3.6-2.1C95.2,39.8,95,39.9,94.7,40.1"/>
<path class="st1" d="M108.8,63c-0.5-0.3-11.2-5.4-12.2-5.7c-0.5-0.2-1-0.3-1.6-0.3c-1.4,0.1-2.6,0.9-3.1,2.1L78.1,88.4
	c-0.1,0.2-0.1,0.4-0.1,0.6c0,0.7,0.6,1.3,1.3,1.3c0.5,0,0.8-0.2,1.1-0.6l16.1-24.2c2.2,0.6,4.7,1.3,6.9,1.8c-2.8,4.8-6.7,12-7,12.7
	c-0.1,0.2-0.2,0.5-0.2,0.7c0,0.8,0.6,1.4,1.4,1.4c0.4,0,0.8-0.2,1.1-0.5c0.2-0.2,11-14.2,11.1-14.4c0.3-0.4,0.5-0.9,0.6-1.5
	C110.4,64.5,109.8,63.5,108.8,63"/>
<path class="st1" d="M101.9,39.7c2.3,0,4.1-1.8,4.1-4.1c0-2.3-1.8-4.1-4.1-4.1c-2.3,0-4.1,1.8-4.1,4.1
	C97.8,37.9,99.7,39.7,101.9,39.7"/>
<path class="st1" d="M49.3,37.2c0.4-0.1,0.7-0.2,0.9-0.5l1.6-2.1c0.4-0.6,0.9-0.9,1.7-0.9h8.5c0.3,0,0.5-0.2,0.5-0.5V32
	c0-0.3-0.2-0.5-0.5-0.5h-9.6c-1,0-1.9,0.4-2.6,1.2l-1.7,2.1H25.6c1,1.1,1.8,3.6,2,5.6c3.6-0.7,9.4-1.7,9.4-1.7L49.3,37.2z"/>
<path class="st1" d="M26.7,29.7c0-2.3-1.9-4.2-4.2-4.2c-2.3,0-4.2,1.9-4.2,4.2c0,2.3,1.9,4.2,4.2,4.2C24.9,33.9,26.7,32,26.7,29.7"
	/>
<path class="st1" d="M14.7,37.6c-0.4,0.8-4.6,8.5-5,9.3c-0.3,0.4-0.4,1-0.3,1.5c0,0.2,0.1,0.4,0.2,0.6l5.9,12.2c0.3,0.6,1,1,1.7,0.8
	c0.8-0.2,1.4-1,1.2-1.8c0-0.1,0-0.2-0.1-0.2c-1.6-4.5-2.9-8.2-4-11.5c1.6-1.9,4.7-5.5,6-7.2c1-1.3,0.9-3.1-0.2-4.3
	c-1.3-1.4-3.4-1.5-4.8-0.2C15.1,37,14.9,37.3,14.7,37.6"/>
<path class="st1" d="M48.5,45.8l2.9,0c0,0.5,0,1,0,1.5c0,0.8,0.1,1.3,0.5,1.9c0.2,0.2,0.8,0.9,1.1,1.2l0.9-0.8c0,0-0.8-0.8-1.1-1.2
	c-0.1-0.2-0.2-0.6-0.2-1c0-0.4,0-1,0.1-1.5l5.1,0.1c0.1,0,0.1-0.1,0.1-0.2c-0.8-0.7-1.7-1.3-1.7-1.3s-0.2-4-3.9-3.9
	c-3.6,0-4,3-3.9,5.1C48.3,45.7,48.4,45.8,48.5,45.8"/>
<path class="st1" d="M77.5,63.3l-6.6-18.9c-0.1-0.4-0.7-0.4-0.9,0l-1.6,4.8c-2.7-0.3-8.2,0.3-13.2,4.4c-2.2,1.8-3.9,4.1-5.1,6.2
	c-1.7-0.7-4.1-1.6-6-2.4c1.5-1.6,3.5-3.9,3.9-4.5c0.3-0.4,0.4-0.8,0.5-1.3c0.3-1.7-0.9-3.3-2.6-3.6c-1.2-0.2-2.2,0.2-3.1,1.3
	c-0.8,1-4.6,7.4-4.9,8.2c-0.1,0.3-0.2,0.6-0.1,0.9c0,1,0.7,1.8,1.7,2.1c1,0.2,5.8,1,9.4,1.6c-0.4,0.9-0.8,1.6-1,2.2l-7.2,3.1
	l-6.4-9.6c0,0-2.4,0.8-3.6,2.9c-0.5,0.8-0.8,1.8-0.6,3.1c0.1,0.8,0.4,1.5,0.9,2.1c0.5,0.6,2.2,2.1,4.3,3.9L20,76.4
	c4.4,5,10.1,6.6,16.3,7c5.7,0.4,9.9-0.5,16.8-3.1c0.7-0.3,10.2-4.2,14.4-6.1c-0.3,1.9-0.6,3.9-0.8,5.1L62.8,80c-0.1,0-0.1,0-0.2,0.1
	c-0.3,0.1-0.4,0.3-0.6,0.5c0,0.1-0.1,0.2-0.1,0.2l-1.2,3.7c0,0,0,0.1,0,0.1c0,0.2,0.2,0.4,0.5,0.4c0,0,0.1,0,0.1,0
	c0,0,6.5-2.7,7.1-3c0.2-0.1,0.4-0.2,0.5-0.3c0.1-0.1,0.2-0.3,0.3-0.5c0.5-1.1,3.1-8.6,3.4-9.7c0.1-0.3,0.2-0.8,0.1-1.2
	c-0.1-1.2-1-1.8-1.9-2c0,0-0.3-0.1-0.8,0c-1.7,0.2-5.8,0.9-8.6,1.5c1.1-7,3.6-10,6.2-11.9c1.7,1.6,4.4,4.1,7.3,7
	c0.2,0.2,0.4,0.3,0.7,0.1c0.3-0.2,1.6-1,1.8-1.2C77.6,63.7,77.5,63.5,77.5,63.3"/>
</svg>
