<?xml version="1.0" encoding="utf-8"?>
<!-- Generator: Adobe Illustrator 24.1.2, SVG Export Plug-In . SVG Version: 6.00 Build 0)  -->
<svg version="1.1" id="Layer_1" xmlns="http://www.w3.org/2000/svg" xmlns:xlink="http://www.w3.org/1999/xlink" x="0px" y="0px"
	 viewBox="0 0 120 120" style="enable-background:new 0 0 120 120;" xml:space="preserve">
<style type="text/css">
	.st0{fill:#1a1b86;}
	.st1{fill:#FFFFFF;}
</style>
<path class="st0" d="M120,60c0,33.1-26.9,60-60,60S0,93.1,0,60C0,26.9,26.9,0,60,0S120,26.9,120,60"/>
<path class="st1" d="M64.3,64.7c-1,4.8-5.8,7.9-10.6,6.9c-4.8-1-7.9-5.8-6.9-10.6c1-4.8,5.8-7.9,10.6-6.9
	C62.3,55.2,65.3,59.9,64.3,64.7"/>
<path class="st1" d="M61.7,91.6c-0.3,0-0.6,0-0.8,0c-4.4-0.2-9-2.5-9-7.5c0-5.5,5.1-7,8.1-6.5c4.4,0.6,25.2,7.1,37.2,11.5
	c-2.1,1.6-4.8,2.6-7.7,2.6c-2.6,0-4.9-0.8-6.9-2c-2,1.3-4.4,2-6.9,2c-2.6,0-4.9-0.8-6.9-2C66.6,90.8,64.3,91.6,61.7,91.6"/>
<path class="st1" d="M34.9,62.7c-0.6-4.6-1.8-12.7-2.8-18.3c0.1,0,0.1,0,0.2,0.1c4.3,0.9,8.6-1.8,9.5-6.2c0.9-4.3-1.8-8.6-6.2-9.5
	c-4.3-0.9-8.6,1.8-9.5,6.2c-0.4,1.8-0.1,3.5,0.6,5l0.6,23.7c0.1,1.7,0.7,3.5,1.6,4.7l13.7,15.5c0.1-4.7,1.7-9.3,4.1-12.3
	C42.6,68.2,38.7,65.1,34.9,62.7"/>
</svg>
