<?xml version="1.0" encoding="utf-8"?>
<!-- Generator: Adobe Illustrator 24.1.2, SVG Export Plug-In . SVG Version: 6.00 Build 0)  -->
<svg version="1.1" id="Layer_1" xmlns="http://www.w3.org/2000/svg" xmlns:xlink="http://www.w3.org/1999/xlink" x="0px" y="0px"
	 viewBox="0 0 120 120" style="enable-background:new 0 0 120 120;" xml:space="preserve">
<style type="text/css">
	.st0{fill:#1a1b86;}
	.st1{fill:#FFFFFF;}
</style>
<path class="st0" d="M120,60c0,33.1-26.9,60-60,60C26.9,120,0,93.1,0,60S26.9,0,60,0C93.1,0,120,26.9,120,60"/>
<path class="st1" d="M81.5,44.1c1.8-1.9,1.6-4.9-0.3-6.7c-1.9-1.8-4.9-1.6-6.7,0.3c-1.8,1.9-1.6,4.9,0.3,6.7
	C76.7,46.2,79.7,46.1,81.5,44.1"/>
<path class="st1" d="M101.2,71.7c0.3-0.6,0.5-1.2,0.6-1.9c0.2-2-0.9-3.8-2.7-4.7c-5.9-3-15.4-7.4-16.9-8.1c-0.4-0.2-0.8-0.2-1.2-0.2
	c-1.2,0.1-2.2,0.9-2.6,2c-0.1,0.3-1.6,5.9-2.8,10.3L59.1,57.5L87.4,54c0.5-0.1,1.1-0.2,1.5-0.5c2-1.1,2.7-3.5,1.6-5.5
	c-0.9-1.6-2.8-2.4-4.5-2c-0.1,0-0.2,0-0.2,0.1c0,0,0,0,0,0c-2.5,0.7-11.7,4.1-14.8,5.4c-3.1,0.6-11.2,2.5-14.9,3.6
	c-0.1,0-0.2,0.1-0.3,0.1c-0.7,0.4-0.9,1.2-0.6,1.9c0.1,0.2,0.2,0.3,0.4,0.4l19.3,13.7c0,0.2-0.1,0.3-0.1,0.5h-4.9h-4.9h-7.1
	c0.3-0.6,0.5-1.2,0.6-1.9c0.2-2-0.9-3.8-2.7-4.7c-5.9-3-15.4-7.4-16.9-8.1c-0.4-0.2-0.8-0.2-1.2-0.2c-1.2,0.1-2.2,0.9-2.6,2
	c-0.1,0.3-1.6,5.9-2.8,10.3L15.8,57.5L44.1,54c0.5-0.1,1.1-0.2,1.5-0.5c2-1.1,2.7-3.5,1.6-5.5c-0.9-1.6-2.8-2.4-4.5-2
	c-0.1,0-0.2,0-0.2,0.1c0,0,0,0,0,0c-2.5,0.7-11.7,4.1-14.8,5.4c-3.1,0.6-11.2,2.5-14.9,3.6c-0.1,0-0.2,0.1-0.3,0.1
	c-0.7,0.4-0.9,1.2-0.6,1.9c0.1,0.2,0.2,0.3,0.4,0.4l19.3,13.7c0,0.2-0.1,0.3-0.1,0.5h-5.2h-4.7H6.9c1.3,4.1,5.1,7.2,9.7,7.2
	c2.9,0,5.5-1.2,7.3-3.1c1.8,1.9,4.4,3.1,7.3,3.1c2.8,0,5.3-1.1,7.1-2.9l16.5,11.7L56,86l-10-7.1c2.7-0.1,5.2-1.2,7-3
	c1.8,1.9,4.4,3,7.2,3c2.8,0,5.4-1.2,7.2-3c1.8,1.9,4.4,3,7.2,3c2.7,0,5.2-1.1,7.1-2.9l16.5,11.7l1.2-1.7l-10-7.1
	c2.7-0.1,5.2-1.2,7-3c1.8,1.9,4.4,3,7.2,3c4.6,0,8.4-3,9.7-7.2H101.2z M36.1,71.7c0.9-2.1,2-4.9,2.9-7.2c3.3,2.6,7.1,5.4,9.7,7.2
	H36.1z M79.5,71.7c0.9-2.1,2-4.9,2.9-7.2c3.3,2.6,7.1,5.4,9.7,7.2H79.5z"/>
<path class="st1" d="M38.2,44.1c1.8-1.9,1.6-4.9-0.3-6.7c-1.9-1.8-4.9-1.6-6.7,0.3c-1.8,1.9-1.6,4.9,0.3,6.7
	C33.4,46.2,36.4,46.1,38.2,44.1"/>
</svg>
