<?xml version="1.0" encoding="utf-8"?>
<!-- Generator: Adobe Illustrator 24.1.2, SVG Export Plug-In . SVG Version: 6.00 Build 0)  -->
<svg version="1.1" id="Layer_1" xmlns="http://www.w3.org/2000/svg" xmlns:xlink="http://www.w3.org/1999/xlink" x="0px" y="0px"
	 viewBox="0 0 120 120" style="enable-background:new 0 0 120 120;" xml:space="preserve">
<style type="text/css">
	.st0{fill:#1a1b86;}
	.st1{fill:#FFFFFF;}
</style>
<path class="st0" d="M120,60c0,33.1-26.9,60-60,60S0,93.1,0,60S26.9,0,60,0S120,26.9,120,60"/>
<path class="st1" d="M98.5,45.8c-0.5-6.7-5.2-9.6-6.8-9.5c-1.5,0.1-5.2,3-5.5,8.5c-0.8,0-1.7,0-2.6,0c-0.5-2.4-1.8-8.7-2.8-12.5
	c-0.6,3.8-2.6,7-5,9.4c0.6,1.2,1.1,2.2,1.6,3.1c-1.5,0-2.9,0.1-4.1,0.2c0.1-3.1,0.2-7.7,0-10.9c-0.1-0.9-0.3-1.9-0.9-2.7
	c-1.6-2.4-4.9-3-7.3-1.4c-1.9,1.3-2.7,3.6-2.1,5.6c1.4,5.6,4.2,14,4.2,14c0.5,1.4,1.8,2.3,3.3,2.2c1.5-0.1,10.1-1.5,16.2-2.5
	c1.3,4.7,5,6.8,6.3,6.7C94.6,56,98.9,52.5,98.5,45.8"/>
<path class="st1" d="M74.4,28.8c2.9,2.2,7.1,1.5,9.3-1.4c2.2-2.9,1.5-7.1-1.4-9.3c-2.9-2.2-7.1-1.5-9.3,1.4
	C70.8,22.5,71.5,26.6,74.4,28.8"/>
<path class="st1" d="M59,50.3c-2.2-1.2-5-1.1-7,0.6c-0.1,0.1-0.3,0.3-0.5,0.4C46.6,55.9,19.2,89.1,18.3,91c-0.1,0.2-0.2,0.5-0.2,0.8
	c-0.1,1.1,0.8,2,1.9,2.1c0.5,0,0.9-0.1,1.2-0.4c0.5-0.4,25.9-22.4,35.3-30.5c2.5,1.3,5.2,2.6,8,3.8c-6.9,6.1-17.7,16.1-18.8,17.9
	c-0.7,1-0.4,2.4,0.7,3.1c0.7,0.4,1.5,0.5,2.1,0.2c2.5-1.2,24.3-16.7,26.8-19.3c1.5-1.5,1.6-4,0.3-5.6c0-0.1-0.3-0.3-0.4-0.4
	C72.8,60.3,60.9,51.3,59,50.3"/>
</svg>
