<?xml version="1.0" encoding="utf-8"?>
<!-- Generator: Adobe Illustrator 24.1.2, SVG Export Plug-In . SVG Version: 6.00 Build 0)  -->
<svg version="1.1" id="Layer_1" xmlns="http://www.w3.org/2000/svg" xmlns:xlink="http://www.w3.org/1999/xlink" x="0px" y="0px"
	 viewBox="0 0 120 120" style="enable-background:new 0 0 120 120;" xml:space="preserve">
<style type="text/css">
	.st0{fill:#1a1b86;}
	.st1{fill:#FFFFFF;}
</style>
<path class="st0" d="M120,60c0,33.1-26.9,60-60,60S0,93.1,0,60C0,26.9,26.9,0,60,0S120,26.9,120,60"/>
<path class="st1" d="M44.5,47.5c0.2,6.1,2.3,30.8,2.9,33.9c0.3,1.5,1.8,1.9,2.9,1.5c0.7-0.3,1.1-0.9,1.2-1.6
	c0.1-0.7,0.8-14.2,1.6-28.2c1-0.6,8-4.7,9.3-5.5c1.2-0.2,3.6-0.8,5.9-1.4c-1.9-1.5-3.6-3.4-5.2-5.4c-1.6,0.9-2.6,1.4-3.3,1.9
	c0,0-0.1,0-0.1,0.1c-1.3,0.9-6.2,5.2-6.3,5.4c0-0.2,0.2-4.6,0.3-6.4c2.2-1.9,6.8-6,7-6.2c4.2,1.7,12.1,4.7,13.3,5.1
	c1.3,0.4,2.7,0.3,4-0.3c2.1-1,3.3-3.1,3.3-5.2c0-0.7-0.2-1.5-0.5-2.2c-0.7-1.6-2.2-2.8-4-3.2c-3.1-0.6-15.9-1.9-16.8-1.9
	c-0.6,0-1.1,0.2-1.4,0.3c-0.4,0.2-0.8,0.5-1.2,0.9c-0.3,0.3-2.1,2.6-3.2,3.9c0.2-5.1,0.3-8.7,0.2-9.5c-0.1-0.9-0.2-1.6-0.5-2.3
	c-1.4-3.1-5-4.4-8.1-3c-2.1,1-3.4,2.9-3.5,5.6c-0.1,2.4,0.2,6.2,0.5,8.6C43.4,38.7,44.2,45.6,44.5,47.5"/>
<path class="st1" d="M71.9,47.3c-3.6,1.2-5.6,5.2-4.4,8.9c1.2,3.7,5.2,5.6,8.9,4.4c3.7-1.2,5.6-5.2,4.4-8.9
	C79.5,48,75.6,46,71.9,47.3"/>
<path class="st1" d="M104.2,100.6c-1.9-0.2-3.6-1-4.8-2.3c-1.4,1.5-3.4,2.4-5.6,2.4c-2.2,0-4.2-0.9-5.6-2.4
	c-1.4,1.5-3.4,2.4-5.6,2.4c-2.2,0-4.2-0.9-5.6-2.4c-1.4,1.5-3.4,2.4-5.6,2.4c-2.2,0-4.2-0.9-5.6-2.4c-1.4,1.5-3.4,2.4-5.6,2.4
	c-2.2,0-4.2-0.9-5.6-2.4c-1.4,1.5-3.4,2.4-5.6,2.4c-2.2,0-4.2-0.9-5.6-2.4c-1.4,1.5-3.4,2.4-5.6,2.4c-2.2,0-4.2-0.9-5.6-2.4
	c-1.4,1.5-3.4,2.4-5.6,2.4c-2.2,0-4.2-0.9-5.6-2.4c-1.3,1.3-3,2.1-4.8,2.3c1.5,1.6,3,3.1,4.7,4.5h79
	C101.1,103.7,102.7,102.2,104.2,100.6"/>
</svg>
