<?xml version="1.0" encoding="utf-8"?>
<!-- Generator: Adobe Illustrator 24.1.2, SVG Export Plug-In . SVG Version: 6.00 Build 0)  -->
<svg version="1.1" id="Layer_1" xmlns="http://www.w3.org/2000/svg" xmlns:xlink="http://www.w3.org/1999/xlink" x="0px" y="0px"
	 viewBox="0 0 120 120" style="enable-background:new 0 0 120 120;" xml:space="preserve">
<style type="text/css">
	.st0{fill:#1a1b86;}
	.st1{fill:#FFFFFF;}
</style>
<path class="st0" d="M120,60c0,33.1-26.9,60-60,60C26.9,120,0,93.1,0,60C0,26.9,26.9,0,60,0C93.1,0,120,26.9,120,60"/>
<path class="st1" d="M61.4,44.2c1.1,1.1,2.8,1.8,4.5,1.6c3-0.3,5.1-3,4.8-6c-0.1-1.1-0.6-2.1-1.2-2.8c-1.1-1.4-2.9-2.2-4.8-2
	c-3,0.3-5.1,3-4.8,6C60,42.3,60.5,43.4,61.4,44.2"/>
<path class="st1" d="M78.1,44.9c1.2-0.1,2.2-0.7,2.9-1.6c0.2-0.3,0.4-0.6,0.7-1c2-3.1,6.4-10.7,6.7-11.5c1.1-2,5.3-13.6,5.5-15
	c0.2-0.8-0.3-1.6-1.1-1.8c-0.7-0.2-1.3,0.2-1.6,0.7c-1,1.7-6.1,11.1-7.2,13.4c-1.3,1.2-8.6,8.8-8.9,9.2c-0.4,0.4-0.5,0.5-0.8,1.1
	c-0.5,0.7-0.8,1.7-0.7,2.7C73.7,43.4,75.8,45.1,78.1,44.9"/>
<path class="st1" d="M48.2,68.8c-0.5-0.3-6-3.9-8-5c3.6-1.3,8-3,11.4-4.3c1.6-2.8,3.3-5.7,4.7-8c-0.8-0.4-1.5-0.5-2.3-0.2
	c-0.3,0.1-0.6,0.2-1.2,0.5c-3.3,1.6-13,6.7-17.4,9.2c-2.6-1.4-4.9-2.5-7.2-3.6c-4.5-2.1-7.8-3.4-9.1-3.9c-0.5-0.2-0.9-0.2-1.3-0.2
	c-1.6,0-2.8,1.3-2.8,2.9c0,0.4,0.1,0.9,0.3,1.3c0.5,1,2,3.4,4.2,6.1l-3.2,5.2c-0.2,0.4,0.2,0.9,0.6,0.7l6-2.3
	c5.1,4.9,10.3,9.3,21.1,16C64,95.4,78.9,97.7,83.8,98c0.5,0,0.8-0.5,0.5-0.9c-3.2-4.4-10.7-10.8-26.1-21.5c1.2-1,2.6-2.1,4.1-3.3
	c0,0,0.7,1,1.1,1.4c0.4,0.4,0.9,0.9,1.4,1.2c2.6,1.5,6.5,0.7,7.8-3c1.2-3.7,2.7-10.1,3.1-12c0.4-1.9-1-3.9-3-4.3
	c-1.1-0.2-2,0.1-2.9,0.7c-0.8,0.6-4.4,4.5-4.4,4.5c-0.7-0.7-1.4-1.5-2-2.3c-1.8,2.1-3.9,4.5-5.8,6.7c0.5,0.8,1,1.6,1.5,2.3
	c-1.9,2-3.6,3.9-4.9,5.3c-0.7-0.5-3.2-2.2-3.6-2.4c0.4-0.4,13.5-15.7,13.5-15.7c-1.2-2.6-2.4-5.7-2.7-8c-0.1,0.1-0.3,0.3-0.6,0.6
	c-0.2,0.3-0.8,1.3-1.1,1.7C59.4,49.6,49.1,67.3,48.2,68.8"/>
<path class="st1" d="M99.3,101.5c-1.4,1.5-3.4,2.4-5.6,2.4c-2.2,0-4.2-0.9-5.6-2.4c-1.4,1.5-3.4,2.4-5.6,2.4c-2.2,0-4.2-0.9-5.6-2.4
	c-1.4,1.5-3.4,2.4-5.6,2.4c-2.2,0-4.2-0.9-5.6-2.4c-1.4,1.5-3.4,2.4-5.6,2.4c-2.2,0-4.2-0.9-5.6-2.4c-1.4,1.5-3.4,2.4-5.6,2.4
	c-2.2,0-4.2-0.9-5.6-2.4c-1.4,1.5-3.4,2.4-5.6,2.4c-2.2,0-4.2-0.9-5.6-2.4c-1.4,1.5-3.4,2.4-5.6,2.4c-2.2,0-4.2-0.9-5.6-2.4
	c-0.7,0.7-1.5,1.2-2.3,1.7c1.9,1.9,4,3.6,6.2,5.2h70.9c2.2-1.6,4.3-3.3,6.2-5.2C100.8,102.8,100,102.2,99.3,101.5"/>
</svg>
