<?xml version="1.0" encoding="utf-8"?>
<!-- Generator: Adobe Illustrator 24.1.2, SVG Export Plug-In . SVG Version: 6.00 Build 0)  -->
<svg version="1.1" id="Layer_1" xmlns="http://www.w3.org/2000/svg" xmlns:xlink="http://www.w3.org/1999/xlink" x="0px" y="0px"
	 viewBox="0 0 120 120" style="enable-background:new 0 0 120 120;" xml:space="preserve">
<style type="text/css">
	.st0{fill:#1a1b86;}
	.st1{fill:#FFFFFF;}
</style>
<path class="st0" d="M120,60c0,33.1-26.9,60-60,60C26.9,120,0,93.1,0,60C0,26.9,26.9,0,60,0C93.1,0,120,26.9,120,60"/>
<path class="st1" d="M22.8,62.3c0.3,0.8,12,32.7,12.3,33.3c0.2,0.5,0.7,0.9,1.3,0.9c0.8,0,1.4-0.6,1.4-1.4c0-0.1,0-0.2,0-0.2
	c0-0.2-1.5-7.2-3.1-14.8c3.1-3.9,7.5-9.4,7.6-9.5c0.3-0.4,0.5-1,0.5-1.6c0-0.8-0.4-1.4-0.9-1.9c-0.4-0.3-10.8-8.9-12.1-9.8
	c-0.7-0.5-1.7-0.9-2.7-0.9c-2.5,0-4.5,2-4.5,4.5C22.6,61.4,22.7,61.9,22.8,62.3 M32,67.4c1.5,0.8,3,1.7,4.6,2.5
	c-1,1.5-2.1,3.3-3.1,4.9C33,72.2,32.5,69.6,32,67.4"/>
<path class="st1" d="M53.3,67.4c-0.6-0.6-6.3-4.8-8.6-6.5c-0.2-2.8-0.9-9.5-1-10.3c0-0.3-0.1-0.6-0.2-0.8c-0.7-1.8-2.7-2.8-4.5-2.1
	c-1.7,0.7-2.7,2.6-2.2,4.3c0.3,1.3,3.1,9.6,3.5,10.8c0.2,0.6,0.7,1.1,1.2,1.4l6.8,3.2v5.2c0,0.2,0,0.3,0.1,0.5l1.8,4
	c-4.3,2.3-7.2,6.9-7.2,12.2c0,7.7,6.2,13.9,13.9,13.9c7.7,0,13.9-6.2,13.9-13.9c0-7.7-6.2-13.9-13.9-13.9c-1.6,0-3.1,0.3-4.6,0.8
	l-1.7-3.8v-3.1H55c1.3,0,1.8,0.5,1.8,1.2c0,0.7-0.4,1.2-1.8,1.2h-0.5c-0.6,0-1.1,0.4-1.1,1c0,0.6,0.5,1,1.1,1h0.8
	c2.8,0,3.6-1.7,3.6-3c0-1.7-1.2-3.3-3.9-3.3H53.3z M56.8,100.8c-6.4,0-11.6-5.2-11.6-11.6c0-4.3,2.4-8.1,5.9-10.1l4.7,10.6
	c0.2,0.4,0.6,0.7,1,0.7c0.2,0,0.3,0,0.5-0.1c0.6-0.3,0.8-0.9,0.6-1.5l-4.7-10.6c1.2-0.4,2.4-0.6,3.7-0.6c6.4,0,11.6,5.2,11.6,11.6
	C68.5,95.6,63.2,100.8,56.8,100.8"/>
<path class="st1" d="M50.2,51.2c2.4,0,4.4-2,4.4-4.4s-2-4.4-4.4-4.4c-2.4,0-4.4,2-4.4,4.4S47.8,51.2,50.2,51.2"/>
<path class="st1" d="M40.6,23.4c1.2-0.3,8.9-3,12.8-4.5c0.6,1.3,1.5,2.8,2.2,4.3c-9.9,0.8-19.3,3.3-27.9,7.2
	c1.2,0.8,2.6,1.3,4.1,1.3c1.6,0,3.1-0.5,4.3-1.4c1.2,0.9,2.7,1.4,4.3,1.4c1.6,0,3.1-0.5,4.3-1.4c1.2,0.9,2.7,1.4,4.3,1.4
	c1.6,0,3.1-0.5,4.3-1.4c1.2,0.9,2.7,1.4,4.3,1.4c2.9,0,5.4-1.8,6.6-4.3c0.1-0.2,0.2-0.3,0.2-0.5c0.3-0.9,0.2-1.9-0.2-2.7
	c-1.3-2.4-7-9.7-8.5-10.4c-0.1-0.1-0.3-0.1-0.4-0.2c-0.5-0.2-1-0.1-1.4,0c-0.9,0.3-14,6.7-14.5,7c-0.3,0.2-0.5,0.5-0.6,0.8
	c-0.2,0.8,0.2,1.6,1,1.8C40.1,23.4,40.4,23.4,40.6,23.4"/>
<path class="st1" d="M77.5,26.5c0,0.1,0,0.3,0,0.4c0,1.7-0.7,3.3-1.8,4.5c0.6,0.2,1.2,0.3,1.9,0.3c1.6,0,3.1-0.5,4.3-1.4
	c1.2,0.9,2.7,1.4,4.3,1.4c1.9,0,3.6-0.7,4.9-1.9C86.7,28.3,82.1,27.2,77.5,26.5"/>
<path class="st1" d="M70.9,22.2c-2.6,0-4.8,2.1-4.8,4.8c0,2.6,2.1,4.8,4.8,4.8c2.6,0,4.8-2.1,4.8-4.8C75.7,24.3,73.5,22.2,70.9,22.2
	"/>
<path class="st1" d="M99.4,66.3c0.4,0.8,1.2,1.4,2.1,1.3c0.6-0.1,1.1-0.4,1.4-0.8l8.2-10c0.3-0.4,0.4-1.1,0.1-1.6
	c-0.4-0.6-1.2-0.8-1.8-0.4c-0.1,0.1-0.2,0.1-0.2,0.2c-2.3,2.1-4.5,4.2-6.5,6.2c-0.4-2.2-0.9-4.3-1.4-6.1c-0.4,2.9-1.3,6.4-2.4,9.9
	L99.4,66.3z"/>
<path class="st1" d="M93.5,50.4c-2.8,1.5-6.1,3.4-9.1,5c-0.4,0.2-0.6,0.6-0.8,1c-0.1,0.2-0.1,0.4-0.2,0.6l-1.2,12.8
	c-0.1,0.6,0.3,1.3,0.9,1.5c0.7,0.3,1.6-0.1,1.8-0.8c0-0.1,0-0.1,0.1-0.2c0.9-4.3,1.7-8.1,2.4-11.3c3-0.9,6-1.9,8.6-2.8
	c1.4-0.5,2.2-2,2-3.5c-0.3-1.7-2-2.8-3.7-2.5C94,50.2,93.7,50.3,93.5,50.4"/>
<path class="st1" d="M107,75.9c-0.6-0.3-11.6-6.5-12.6-6.9c-0.5-0.2-1.1-0.4-1.6-0.4c-1.5,0-2.8,0.8-3.5,2L72.5,101
	c-0.1,0.2-0.2,0.4-0.2,0.6c0,0.8,0.5,1.4,1.3,1.5c0.5,0,0.9-0.2,1.2-0.5l18.8-24.9c2.3,0.8,4.9,1.7,7.3,2.4
	C97.6,85,93,92.4,92.5,93.1c-0.1,0.2-0.2,0.5-0.3,0.7c-0.1,0.8,0.6,1.5,1.4,1.6c0.5,0,0.9-0.2,1.2-0.5c0.2-0.2,12.7-14.5,12.8-14.7
	c0.4-0.4,0.6-0.9,0.7-1.5C108.6,77.6,108,76.5,107,75.9"/>
<path class="st1" d="M101.1,50.5c2.4,0.1,4.5-1.7,4.6-4.1c0.1-2.4-1.7-4.5-4.1-4.6c-2.4-0.1-4.5,1.7-4.6,4.1
	C96.9,48.3,98.7,50.4,101.1,50.5"/>
<path class="st1" d="M29.7,89.2c0-7.7-6.2-13.9-13.9-13.9c-4.9,0-9.3,2.6-11.7,6.5c0.4,0.9,0.7,1.8,1.1,2.7
	c1.8-4.1,5.9-6.9,10.6-6.9c6.4,0,11.6,5.2,11.6,11.6c0,6.3-5.1,11.5-11.4,11.6c0.7,0.7,1.3,1.4,2,2.1
	C24.6,101.8,29.7,96.1,29.7,89.2"/>
</svg>
