<?xml version="1.0" encoding="utf-8"?>
<!-- Generator: Adobe Illustrator 24.1.2, SVG Export Plug-In . SVG Version: 6.00 Build 0)  -->
<svg version="1.1" id="Layer_1" xmlns="http://www.w3.org/2000/svg" xmlns:xlink="http://www.w3.org/1999/xlink" x="0px" y="0px"
	 viewBox="0 0 120 120" style="enable-background:new 0 0 120 120;" xml:space="preserve">
<style type="text/css">
	.st0{fill:#1a1b86;}
	.st1{fill:#FFFFFF;}
</style>
<ellipse transform="matrix(0.9239 -0.3827 0.3827 0.9239 -18.3938 27.5282)" class="st0" cx="60" cy="60" rx="60" ry="60"/>
<path class="st1" d="M25.9,72.4c1,1.2,2,2.8,2.4,5L42,77.3c0,0,0.2,0,0.2,0l9.9,8.1l-27.8-6.9c-0.3-0.1-0.5-0.1-0.8,0.1l-3.3,1.7
	c0.5-0.8,0.9-1.4,1.2-2.1c0.7-1.5-0.1-3.3-1.6-3.9c-1.5-0.7-3.3,0.1-3.9,1.6c-0.4,1-2.2,7.5-2.4,8.8c-0.1,0.5,0,0.8,0.2,1.2
	c0.5,0.9,1.7,1.2,2.6,0.8c1.3-0.6,8.8-6.4,8.8-6.4l13.8,3.5c-1.6,5.8-1.1,12,1.1,19.9c0.9,1.7,3,2.7,5.4,2.7c2.2,0,4.2-1.1,5.4-2.7
	c1.2,1.6,3.2,2.7,5.4,2.7c2.2,0,4.2-1.1,5.4-2.7c1.2,1.6,3.2,2.7,5.4,2.7c2.2,0,4.2-1.1,5.4-2.7c1.2,1.6,3.2,2.7,5.4,2.7
	s4.2-1.1,5.4-2.7c1.2,1.6,3.2,2.7,5.4,2.7c1.5,0,3-0.5,4.1-1.4C85.3,98.1,71.9,91,56.6,86.6h33.8c0.6,0,1.1-0.5,1.2-1.1
	C94.6,58.7,88.4,26,77.6,8.7c-0.3-0.4-0.9-0.3-1.1,0.2L54.3,85.3l-11.7-9.6c0,0-0.1-0.1-0.1-0.1c-0.1,0-0.2-0.1-0.3-0.1l-8-1.2
	l-8-1.9C26.3,72.4,26.1,72.4,25.9,72.4"/>
<path class="st1" d="M19.6,72.3c2.1-0.3,3.7-2.2,3.4-4.3c-0.3-2.1-2.2-3.7-4.3-3.4c-2.1,0.3-3.7,2.2-3.4,4.3
	C15.5,71.1,17.5,72.6,19.6,72.3"/>
<path class="st1" d="M24.7,89.3c-0.7,2.1,0.5,4.4,2.6,5.1c0.8,0.3,1.5,0.3,2.4,0c1.6-0.5,3.9-1.6,6.3-2.8c-0.1-2.2,0.1-4.4,0.5-6.5
	c-6.2,0.8-8.9,1.5-8.9,1.5C26.3,87,25.1,87.9,24.7,89.3"/>
</svg>
