<?xml version="1.0" encoding="utf-8"?>
<!-- Generator: Adobe Illustrator 24.1.2, SVG Export Plug-In . SVG Version: 6.00 Build 0)  -->
<svg version="1.1" id="Layer_1" xmlns="http://www.w3.org/2000/svg" xmlns:xlink="http://www.w3.org/1999/xlink" x="0px" y="0px"
	 viewBox="0 0 120 120" style="enable-background:new 0 0 120 120;" xml:space="preserve">
<style type="text/css">
	.st0{fill:#1a1b86;}
	.st1{fill:#FFFFFF;}
</style>
<path class="st0" d="M120,60c0,33.1-26.9,60-60,60C26.9,120,0,93.1,0,60S26.9,0,60,0C93.1,0,120,26.9,120,60"/>
<path class="st1" d="M67.1,38.5c2.1,1.7,5.2,1.3,6.9-0.8c1.7-2.1,1.3-5.2-0.8-6.9c-2.1-1.7-5.2-1.3-6.9,0.8
	C64.6,33.7,64.9,36.8,67.1,38.5"/>
<path class="st1" d="M60.8,48.3c2.4-1.3,3.2-4.3,1.9-6.7c-1.3-2.4-4.3-3.2-6.7-1.9c-2.4,1.3-3.2,4.3-1.9,6.7
	C55.4,48.7,58.4,49.6,60.8,48.3"/>
<path class="st1" d="M33.6,80c-0.1,0.4,0.1,0.9,0.3,1.3c0.6,0.7,1.6,0.9,2.3,0.4c0.3-0.2,0.5-0.5,0.6-0.8l6.4-18.5
	c0.4-1.2,0.5-2.8-0.1-3.9c-0.9-1.5-8-12.8-8-12.8c-1.3-2.1-4.1-2.8-6.3-1.5c-0.4,0.2-1,0.7-1.4,1.4C24.3,50.1,7.3,78.4,6.9,79.7
	c-0.2,0.5-0.1,1.1,0.2,1.6c0.6,0.7,1.6,0.9,2.3,0.4c0.1-0.1,0.3-0.2,0.5-0.5c0.3-0.4,21.5-26.1,21.5-26.1c2.1,2.3,4.2,4.4,6.2,6.3
	C36.2,66.7,34,76.8,33.6,80"/>
<path class="st1" d="M77,57.4c-0.8,0.9-1.4,2.6-1.4,4.2l-0.9,18.6c0,0.5,0.2,1.1,0.7,1.4c0.7,0.6,1.8,0.4,2.3-0.4
	c0.2-0.2,0.2-0.5,0.3-0.7c1.3-6.9,2.6-13.5,3.2-18.7c1.3-1,4.1-3.2,6.6-5.3l3,8.9c0.2,0.5,0.5,1,0.9,1.3L110,81.6
	c0.7,0.6,1.8,0.4,2.3-0.4c0.5-0.7,0.4-1.6-0.2-2.2c-5.8-6.3-11.5-12.3-15.8-15.9c-0.1-3.4-0.6-10.6-1.5-14.1c-0.3-1.2-1.1-2.1-2-2.7
	c-1.7-1-3.8-0.9-5.3,0.4C85.6,48.6,78,56.1,77,57.4"/>
<path class="st1" d="M78,35.8c-2.6,3.5-5.2,7-7.4,10.6c-2.8,2.9-5.8,6.6-9,10.6c-3.8-0.7-7.5-1.3-11-1.7c0.7-4.1,1.2-8.3,1.1-11.7
	c0-1.2-0.7-2.4-1.8-3.1c-1.8-1.1-4.1-0.5-5.2,1.2c-0.4,0.6-0.5,1.2-0.6,1.9c-0.1,3.7,0.6,8.9,1.5,14c0.1,0.7,0.4,1.3,1.1,1.7
	c0.4,0.2,0.8,0.3,1.2,0.3c0,0,13.4,0,13.9,0c0.6,0,0.7,0,1.2-0.3l20.7-18.6c0.6-0.5,1-1.2,1.2-2c0.4-2-0.9-4.1-2.9-4.5
	C80.3,34,78.9,34.6,78,35.8"/>
</svg>
